<svg width="90" height="90" viewBox="0 0 90 90" fill="none" xmlns="http://www.w3.org/2000/svg">
<path d="M87.75 45C87.75 54.0355 84.9474 62.4137 80.1612 69.3176C79.9295 69.6564 79.6905 69.993 79.4448 70.3251C77.243 73.3167 74.6609 76.0099 71.7696 78.3346C68.3483 81.0828 64.4949 83.3188 60.3252 84.9177C60.2613 84.9429 60.1979 84.9681 60.1317 84.9929C55.4274 86.7739 50.3275 87.75 45 87.75C33.3395 87.75 22.7731 83.0844 15.0593 75.5141C12.8095 73.3073 10.8009 70.8507 9.08343 68.1939L9.02884 68.112C9.00612 68.0755 8.9811 68.0391 8.95833 68.0004C8.91738 67.9365 8.87643 67.8731 8.83548 67.8069C7.71174 66.0326 6.71539 64.1628 5.86008 62.2246C3.5398 56.9538 2.25 51.1281 2.25 45C2.25 21.3877 21.39 2.25 45 2.25C68.6101 2.25 87.75 21.39 87.75 45Z" fill="#FFBFC5"/>
<path d="M60.4524 22.8232L27.9003 29.4679C27.9003 29.4679 31.3579 25.1048 32.7637 22.1613C32.9298 21.8178 33.0663 21.4925 33.1664 21.1967C34.1218 18.3692 35.2524 14.3042 38.1163 13.0326C38.2346 12.9802 38.3597 12.9256 38.4894 12.8733C41.5148 11.629 47.6728 10.2186 50.4502 13.0326C51.4695 14.063 52.5769 15.4234 53.7348 16.8064C54.0147 17.1385 54.2946 17.4729 54.579 17.805C56.4739 20.0161 58.48 22.1044 60.4524 22.8232Z" fill="#F5D256"/>
<path d="M53.7353 16.8087C50.6483 16.563 48.7326 15.3756 47.3907 14.4839C45.8486 13.458 38.999 12.9985 38.999 12.9985L38.4895 12.8756C41.5149 11.6313 47.6729 10.221 50.4503 13.0349C51.4695 14.0653 52.5774 15.4257 53.7353 16.8087Z" fill="#FFE8A8"/>
<path d="M60.4524 22.8232L27.9003 29.4678C27.9003 29.4678 31.3579 25.1048 32.7637 22.1612C36.4671 20.719 45.0543 17.8346 54.579 17.8051C56.4739 20.0161 58.48 22.1044 60.4524 22.8232Z" fill="#D533A5"/>
<path d="M27.3338 29.8159L27.7205 29.3268C27.7546 29.2836 31.1782 24.9501 32.5567 22.0634L32.5954 21.9815L32.6796 21.9497C36.8401 20.33 45.218 17.6071 54.5767 17.5776H54.6811L54.7495 17.6572C56.5036 19.7045 58.5619 21.8928 60.5275 22.6094L61.2826 22.8846L27.3315 29.8159H27.3338ZM32.9298 22.341C31.7878 24.6885 29.3857 27.9096 28.4553 29.1221L59.7017 22.7436C57.8999 21.8314 56.1305 19.9615 54.4741 18.0325C44.9634 18.0826 36.3033 21.0329 32.9298 22.341Z" fill="black"/>
<path d="M27.334 29.8159L27.7207 29.3268C27.7548 29.2836 31.1784 24.9502 32.5569 22.0635C32.723 21.7222 32.8526 21.4061 32.9504 21.124C33.0278 20.8965 33.1051 20.6577 33.187 20.4165C34.1288 17.573 35.3003 14.0357 38.0232 12.8255C38.1437 12.7733 38.2711 12.7164 38.4031 12.664C41.3535 11.4493 47.7071 9.93205 50.6119 12.8733C51.4898 13.7605 52.4227 14.8797 53.41 16.0626L54.0877 16.8724C54.3082 17.134 54.5269 17.3956 54.7519 17.6572C56.506 19.7045 58.5647 21.8929 60.5299 22.6094L61.285 22.8847L27.334 29.8159ZM45.512 11.6267C45.1889 11.6267 44.8748 11.6381 44.5791 11.6586C41.7516 11.8542 39.2698 12.7983 38.576 13.0849C38.4463 13.1372 38.3235 13.1895 38.2075 13.2418C35.6688 14.3701 34.5314 17.8028 33.6169 20.5598C33.5373 20.8032 33.4577 21.0421 33.3804 21.2718C33.278 21.5721 33.1393 21.9065 32.9664 22.2614C31.8426 24.6158 29.3949 27.8983 28.4532 29.1244L59.6996 22.7459C57.8731 21.8223 56.0803 19.9115 54.404 17.9552C54.1808 17.6936 53.9581 17.4297 53.7376 17.1681L53.0572 16.356C52.0766 15.1799 51.1487 14.0699 50.2843 13.1941C49.0535 11.9475 47.1473 11.6267 45.5071 11.6267H45.512Z" fill="black"/>
<path d="M60.9893 28.2987C57.4384 29.9365 52.1792 31.563 46.1758 32.7481C42.2793 33.5193 38.5737 34.0038 35.3571 34.2108C32.2839 34.4087 29.6565 34.3518 27.7275 34.047C25.7416 33.7331 24.5018 33.1576 24.2835 32.3205C23.6328 29.8228 32.3794 25.9647 43.8216 23.7036C48.1616 22.846 52.2679 22.341 55.7257 22.1795C61.3831 21.9201 65.3116 22.5821 65.7139 24.1313C66.0235 25.3187 64.2082 26.8132 60.9893 28.2987Z" fill="#F5D256"/>
<path d="M36.4218 29.0219L35.3572 34.213C32.284 34.4109 29.6566 34.354 27.7275 34.0492C28.5419 31.9746 30.7962 28.2986 36.4218 29.0219Z" fill="#E0B835"/>
<path d="M60.9892 28.2987C60.4708 24.5726 58.0323 22.9097 55.7256 22.1795C61.383 21.9201 65.3115 22.5821 65.7142 24.1313C66.0234 25.3187 64.2081 26.8132 60.9892 28.2987Z" fill="#FFE8A8"/>
<path d="M31.9813 34.5542C30.3298 34.5542 28.8785 34.4586 27.6911 34.2721C25.521 33.9286 24.3017 33.2917 24.0628 32.3773C23.9605 31.9837 24.0492 31.5606 24.3244 31.1216C25.9259 28.5693 33.9263 25.4278 43.7784 23.4806C47.9865 22.648 52.1153 22.1202 55.7166 21.9519C58.5894 21.82 65.3363 21.7631 65.9348 24.0743C66.3555 25.6916 63.5304 27.3773 61.0847 28.5055C57.3951 30.2071 51.9767 31.8358 46.2194 32.9709C42.4567 33.7148 38.7033 34.2221 35.3708 34.4382C34.1697 34.5155 33.0346 34.5542 31.9813 34.5542ZM58.0616 22.3523C57.3452 22.3523 56.5716 22.3705 55.7369 22.4091C52.1585 22.5752 48.0527 23.1029 43.8671 23.9287C34.2834 25.8236 26.2262 28.9492 24.7111 31.3649C24.5041 31.6948 24.4359 31.9974 24.5041 32.2658C24.6884 32.9687 25.844 33.5215 27.7639 33.824C29.6747 34.1265 32.2953 34.1811 35.3435 33.9855C38.6578 33.7717 42.3885 33.2667 46.133 32.5274C51.8561 31.3968 57.2381 29.7817 60.8961 28.0938C64.083 26.6243 65.7597 25.2003 65.4956 24.1903C65.2521 23.2576 63.1412 22.3523 58.0638 22.3523H58.0616Z" fill="black"/>
<path d="M65.5365 69.3086L46.6126 67.6594L19.9636 65.0728C19.9636 65.0728 17.9868 61.3945 17.152 56.9224C16.2784 52.2406 15.9804 46.9198 19.611 44.9136C23.5077 42.7617 27.509 41.4514 30.5413 38.8308C33.0322 36.6766 34.8657 33.6398 35.4458 28.5261C35.4458 28.5261 45.9691 23.8764 55.6639 25.0434C60.7755 32.2681 64.7656 37.3545 67.0651 39.3518C67.386 39.6339 67.5633 40.2617 67.8229 40.4004C69.9339 41.5288 80.9004 57.7796 65.5342 69.3086H65.5365Z" fill="#CC6036"/>
<path d="M27.3226 43.4327C23.1529 44.2767 22.8709 46.7015 21.7425 52.0066C21.0829 55.1183 18.9082 56.1488 17.2248 56.4674C16.3399 51.7856 16.3331 46.5013 20.0092 44.495C23.9537 42.3431 28.005 41.0328 31.0737 38.4123C32.0587 40.5619 31.0988 42.6661 27.3226 43.4327Z" fill="#FF8E66"/>
<path d="M66.0054 68.8874L47.343 67.2381C49.3356 62.0928 53.0162 54.693 57.4361 55.6596C64.1352 57.1271 71.328 54.3083 69.8475 49.2926C68.7257 45.4937 66.9108 42.4091 67.404 39.3495C67.7204 39.6316 68.007 39.8408 68.2617 39.9796C70.3434 41.1079 81.1596 57.3588 66.0054 68.8874Z" fill="#E86F39"/>
<path d="M65.9618 69.1218L19.5178 65.0727L19.4654 64.9454C19.4495 64.9067 17.8253 60.9507 16.995 56.5061C15.819 50.2025 16.8085 45.9783 19.859 44.2926C21.1693 43.5692 22.4977 42.9368 23.7807 42.3272C26.3399 41.1102 28.7579 39.9591 30.7506 38.2371C33.5304 35.8326 35.0637 32.6047 35.5777 28.0779L35.5914 27.9505L35.7097 27.8982C35.8075 27.8527 45.6461 23.4396 55.291 24.5998L55.3909 24.6112L55.4503 24.693C60.5911 31.9587 65.1865 37.2021 67.4612 39.1766C67.7659 39.445 68.0458 39.6475 68.2892 39.7771C69.5857 40.4709 73.6028 46.0031 74.1172 52.7387C74.6018 59.0877 71.806 64.7339 66.0302 69.0674L65.9596 69.1196L65.9618 69.1218ZM19.834 64.6452L65.8277 68.6534C71.5058 64.3653 74.1419 59.0238 73.6645 52.7751C73.1708 46.3104 69.2765 40.8212 68.0755 40.1798C67.8001 40.0319 67.4927 39.8113 67.1629 39.5201C64.8791 37.5365 60.2797 32.2931 55.1384 25.0388C46.2145 23.9992 37.1451 27.7708 36.0168 28.2599C35.4731 32.8391 33.8921 36.1215 31.0487 38.5806C29.0082 40.3435 26.565 41.506 23.9763 42.7366C22.6979 43.344 21.3785 43.9718 20.0796 44.6884C18.0824 45.7916 16.0055 48.7215 17.4432 56.4192C18.1802 60.3707 19.5519 63.9306 19.834 64.6403V64.6452Z" fill="black"/>
<path d="M33.4804 54.5995C33.4804 54.5995 34.5769 53.3714 34.1628 51.4423C33.7488 49.5131 33.7147 45.3479 35.6437 43.4533C37.5727 41.5584 33.1301 43.1325 33.1301 43.1325C33.1301 43.1325 29.7361 47.2204 33.4804 54.5972V54.5995Z" fill="#C14216"/>
<path d="M79.3196 70.4934C74.5833 76.9266 67.8707 81.9423 60.3251 84.9155C60.2616 84.9407 60.1977 84.9659 60.1316 84.9906C55.4273 86.7717 50.3274 87.7478 44.9999 87.7478C33.3393 87.7478 22.773 83.0822 15.0592 75.5118C12.7867 73.2825 10.7599 70.7985 9.02877 68.1093C9.006 68.0733 8.98098 68.0369 8.95825 67.9982C10.2299 66.906 12.2954 65.6348 15.6484 64.4675C17.8345 63.7056 20.5687 62.9865 23.9855 62.3907C26.2602 61.9902 28.8375 61.6469 31.7584 61.3809C32.7093 61.2941 33.6988 61.2149 34.7247 61.1465C34.984 61.128 35.2456 61.11 35.5095 61.0943C35.5095 61.0943 35.5141 61.0758 35.5209 61.0416C35.7279 60.134 38.5395 47.6388 38.13 38.4236C38.13 38.4236 46.3058 35.7371 45.7392 25.3687L56.1644 24.7522C56.1644 24.7522 74.217 56.2374 52.4883 52.2315L52.536 60.6506V60.7622C52.536 60.7622 53.2826 60.9165 54.5358 61.2077C55.2567 61.376 56.1464 61.5879 57.1584 61.8426C62.0904 63.0824 69.9317 65.3162 75.4275 68.1552C76.8378 68.8829 78.3071 69.6906 79.3196 70.4934Z" fill="#BF9EF9"/>
<path d="M75.7686 68.0279C74.0897 69.0445 70.2134 71.3719 67.2403 73.0369C63.337 75.223 66.599 81.581 62.8091 80.8484C49.4288 77.2021 55.2612 64.9612 57.5 61.7153C62.4315 62.9551 70.2728 65.1889 75.7686 68.0279Z" fill="#49A2A6"/>
<path d="M21.863 67.7071C19.3152 68.9446 16.6538 71.6333 15.0591 75.5141C12.7866 73.2848 10.7598 70.8008 9.02869 68.1121C11.0237 66.2738 15.2821 63.842 24.3266 62.2634C24.6178 63.851 24.5768 66.3899 21.863 67.7071Z" fill="#49A2A6"/>
<path d="M54.704 86.6421C51.5851 87.368 48.337 87.75 44.9998 87.75C38.5894 87.75 32.509 86.3397 27.0518 83.8125C29.1605 82.8365 32.4225 81.8199 34.6381 83.4804C38.1504 86.1143 39.5198 87.7248 44.9998 85.6755C49.2059 84.1037 52.6637 85.2044 54.704 86.6421Z" fill="#49A2A6"/>
<path d="M63.3643 81.1328C63.1798 81.1328 62.9818 81.1121 62.7658 81.0689C58.4822 79.9021 55.7525 77.7637 54.6356 74.7086C52.8887 69.9296 55.6229 64.0332 57.3131 61.5807L57.6884 61.8382C56.0437 64.2218 53.3801 69.9476 55.0636 74.5493C56.1256 77.4567 58.7531 79.5016 62.8706 80.623C63.403 80.7256 63.7985 80.6779 64.0694 80.4731C64.5878 80.0794 64.6675 79.1015 64.7606 77.9684C64.9064 76.1896 65.0905 73.9765 67.1312 72.8321C70.3091 71.0533 74.4559 68.5508 75.6524 67.8277L75.8891 68.2165C74.6926 68.9423 70.5386 71.4466 67.354 73.2299C65.5252 74.2537 65.3591 76.249 65.2156 78.0071C65.1134 79.2491 65.0248 80.3206 64.3444 80.8372C64.0852 81.0325 63.7621 81.1306 63.3665 81.1306L63.3643 81.1328Z" fill="black"/>
<path d="M15.2479 75.696L14.893 75.3504C16.3603 71.7765 18.9035 68.8897 21.7652 67.5001C24.156 66.34 24.3994 64.1994 24.1423 62.5249C15.2252 64.1107 11.0873 66.5241 9.1856 68.2782L8.87622 67.9438C10.8394 66.1353 15.1091 63.6396 24.2902 62.0385L24.5131 61.9998L24.554 62.2203C24.8338 63.7399 24.868 66.5016 21.9653 67.9096C19.2015 69.2515 16.6765 72.2224 15.2502 75.696H15.2479Z" fill="black"/>
<path d="M40.8303 86.8334C38.6579 86.8334 37.2839 85.7822 35.3344 84.2922C35.0705 84.0897 34.793 83.8782 34.5041 83.6622C32.4272 82.1061 29.5087 82.9274 27.2999 83.9511L26.7926 83.6919C29.1129 82.6182 32.5205 81.608 34.7771 83.3004C35.0683 83.5191 35.3458 83.7306 35.6119 83.9331C38.5441 86.1737 40.0159 87.2996 44.9226 85.464C49.9387 83.5893 53.8055 85.6256 55.1159 86.5467L54.4337 86.7015C53.1823 85.8186 49.8955 84.0897 45.0841 85.8893C43.3189 86.549 41.9677 86.8356 40.8349 86.8356L40.8303 86.8334Z" fill="black"/>
<g opacity="0.6">
<path d="M29.6383 75.0115C20.3686 76.051 16.9314 67.3588 15.9896 64.3402C18.1757 63.5783 20.91 62.8592 24.3267 62.2634C26.6015 61.8629 29.1788 61.5196 32.0996 61.2536C33.0505 61.1668 34.04 61.0876 35.066 61.0192C36.3762 64.7816 37.9368 74.0809 29.6383 75.0115Z" fill="#7962B7"/>
</g>
<path d="M79.2445 70.2775L78.9623 70.6325C78.016 69.8815 76.7902 69.1174 75.3227 68.3601C69.9817 65.5984 62.4658 63.4123 57.104 62.0655C56.2693 61.854 55.4116 61.6469 54.4837 61.431C53.2484 61.1443 52.4978 60.9895 52.4906 60.9872L52.3088 60.9485V60.6529L52.2611 51.9612L52.5293 52.0111C57.0905 52.8504 60.1933 52.1609 61.7516 49.9591C66.2485 43.6102 56.9402 26.6062 56.0371 24.9888L45.9782 25.5848C46.2055 30.8919 44.115 34.1448 42.3089 35.9488C40.6187 37.6321 38.8967 38.3805 38.3644 38.5829C38.7307 47.6866 36.051 59.743 35.7439 61.0943C35.737 61.1281 35.7302 61.1511 35.7302 61.1511L35.6892 61.3126L35.5232 61.3238C35.2616 61.34 35 61.3581 34.7407 61.3761C33.7716 61.44 32.8026 61.5173 31.7789 61.6082C28.9878 61.8629 26.3786 62.2018 24.0265 62.6158C20.8782 63.1666 18.0847 63.8628 15.7235 64.684C12.8504 65.6848 10.6189 66.8629 9.0834 68.194L9.02881 68.1121C9.00609 68.0757 8.98102 68.0392 8.9583 68.0005C8.91735 67.9366 8.8764 67.8732 8.83545 67.807C10.4119 66.4584 12.6775 65.264 15.5733 64.2538C17.9574 63.4235 20.7735 62.7229 23.9469 62.1681C26.3103 61.7518 28.9332 61.4125 31.738 61.1556C32.7662 61.0624 33.7375 60.985 34.7111 60.9211C34.9136 60.9076 35.1183 60.8941 35.3253 60.8801C35.7393 59.0424 38.2962 47.2771 37.9026 38.4351L37.8958 38.2645L38.0596 38.2099C38.1392 38.1826 46.0624 35.4483 45.5116 25.3846L45.5003 25.1572L56.2918 24.5179L56.3624 24.6408C56.3899 24.6886 59.0467 29.3473 61.078 34.7818C63.8239 42.1293 64.174 47.3248 62.1224 50.2228C60.4844 52.5363 57.32 53.303 52.7183 52.507L52.7638 60.58C53.0572 60.6416 53.6989 60.7825 54.5881 60.9895C55.5187 61.2055 56.3759 61.4125 57.2156 61.624C62.5999 62.9776 70.15 65.1749 75.532 67.9551C77.0264 68.7259 78.2756 69.5062 79.2445 70.2775Z" fill="black"/>
<path d="M46.0417 74.2195C38.0164 74.206 34.0742 65.1844 32.0997 61.2509C33.2917 61.142 34.5406 60.5845 35.8508 60.5026C35.8508 60.5026 35.8554 60.9463 35.8622 60.9121C36.092 61.7468 39.379 70.084 46.4445 69.6497C52.3318 69.2879 52.8732 60.5233 52.8732 60.5233H52.8777V60.6322C52.8777 60.6322 53.6238 60.787 54.877 61.0781C54.9432 62.3476 55.291 74.2357 46.0417 74.2195Z" fill="#F5D256"/>
<path d="M35.4277 61.0052C35.4277 61.0052 35.4323 61.0214 35.4345 61.0304H35.4255C35.546 61.4741 36.4059 63.7237 38.1052 65.8756C40.298 68.6534 42.9982 70.1204 45.9166 70.1204C46.1011 70.1204 46.2897 70.1137 46.4764 70.1024C49.072 69.9431 51.0849 68.2165 52.2931 65.1137C52.9047 63.5419 53.1643 62.0087 53.2665 61.1785C53.5486 61.2397 53.9446 61.3283 54.4383 61.4399C54.477 62.9776 54.3924 68.5054 51.4489 71.6036C50.0908 73.0346 48.2778 73.76 46.0624 73.76H46.044C38.783 73.7465 34.9477 65.9782 32.8868 61.8062C32.8527 61.7378 32.8208 61.6721 32.789 61.606C33.1734 61.5331 33.5556 61.4309 33.9309 61.3328C34.4223 61.2032 34.9273 61.0714 35.43 61.0007M35.8508 60.5048C34.5406 60.5867 33.2917 61.1443 32.0997 61.2532C34.0742 65.1866 38.0164 74.206 46.0417 74.2217H46.0624C55.2888 74.2217 54.9432 62.3498 54.877 61.0804C53.6238 60.7892 52.8777 60.6349 52.8777 60.6349V60.5233H52.8732C52.8732 60.5233 52.3318 69.2902 46.4445 69.652C46.2649 69.6632 46.0872 69.6677 45.9121 69.6677C39.213 69.6677 36.0852 61.7266 35.8622 60.9143C35.8554 60.9143 35.8508 60.5026 35.8508 60.5026V60.5048Z" fill="black"/>
<path d="M59.4332 52.0066C57.8226 52.5457 55.6662 52.6276 52.8299 52.1042L52.8591 57.3773L52.8776 60.6349C53.2709 64.7249 51.2351 68.3825 48.171 69.5471C44.5495 70.9237 40.7415 68.3461 39.0763 66.4651C37.3497 64.513 35.8507 60.9647 35.8507 60.9647C35.8507 60.9647 38.8966 47.8616 38.4712 38.294C38.4712 38.294 46.5218 35.703 45.9552 25.3346C47.5725 25.0775 49.3788 24.7454 51.3624 24.7022C52.3722 24.6794 53.337 24.6976 54.2492 24.7431C55.002 24.7022 55.4138 24.7932 56.1644 24.7522C56.1644 24.7522 70.1544 48.4259 59.4332 52.0043V52.0066Z" fill="#FFD9D4"/>
<path d="M59.4331 52.0065C60.0226 42.4818 55.7755 29.1675 54.2491 24.7454L56.3511 24.6953C56.3511 24.6953 70.1544 48.4281 59.4331 52.0065Z" fill="#FFF2F0"/>
<path d="M52.8591 57.3773C46.0916 55.2367 44.4585 47.0858 44.4585 47.0858C48.0095 50.4005 52.8299 52.1042 52.8299 52.1042L52.8591 57.3773Z" fill="#FEA8A1"/>
<path d="M46.0191 70.1659C42.9435 70.1659 40.1455 68.014 38.9058 66.6149C37.1883 64.6745 35.7006 60.7505 35.6392 60.5845L35.8507 60.2753L36.0645 60.4229C36.126 60.5867 37.5841 64.4333 39.2469 66.3125C40.7096 67.964 44.438 70.7212 48.0891 69.3311C51.1054 68.1845 53.0251 64.5337 52.6498 60.6529L52.5999 51.8266L52.8708 51.8765C55.5321 52.3679 57.7159 52.3387 59.3607 51.7856C60.9982 51.2398 62.1291 50.1571 62.7181 48.574C65.3659 41.4628 56.7129 26.2673 55.8871 24.8432L53.8122 24.7591C52.5931 24.7067 51.3579 24.7272 50.1433 24.8182C48.8194 24.9183 47.4883 25.1026 46.1829 25.3687C46.6401 35.6302 38.6237 38.4783 38.5418 38.5056L38.3939 38.0757C38.4735 38.0483 46.267 35.264 45.7162 25.1981L45.705 25.0024L45.8962 24.9615C47.2791 24.6681 48.6966 24.4679 50.1069 24.361C51.3399 24.2677 52.5931 24.2495 53.8284 24.3018L56.1508 24.3951L56.2147 24.502C56.2395 24.5429 58.6825 28.6785 60.748 33.6921C63.5349 40.4573 64.3399 45.5162 63.1434 48.7306C62.5021 50.4505 61.2781 51.6241 59.5015 52.2158C57.841 52.7729 55.6734 52.8229 53.0548 52.3702L53.1003 60.6277C53.4918 64.6885 51.451 68.5351 48.2461 69.7541C47.4978 70.0385 46.7467 70.1614 46.0123 70.1614L46.0191 70.1659Z" fill="black"/>
<path d="M41.5376 32.0543C41.5376 32.0543 38.2278 26.9633 33.2916 31.5629C29.6974 34.9114 37.7729 39.0219 37.7729 39.0219C37.7729 39.0219 41.2442 35.0592 41.5399 32.0565L41.5376 32.0543Z" fill="#FFD9D4"/>
<path d="M37.8251 39.3017L37.6682 39.2221C37.4589 39.1152 32.5613 36.5925 32.1677 33.79C32.0449 32.9142 32.3702 32.1066 33.1368 31.3923C34.7337 29.9046 36.3397 29.2472 37.9093 29.4406C40.2751 29.7317 41.6718 31.8382 41.7287 31.9269L41.7719 31.9929L41.765 32.0725C41.467 35.1139 38.0867 39.0015 37.9434 39.1676L37.8274 39.3017H37.8251ZM37.3747 29.866C36.094 29.866 34.7746 30.4915 33.4461 31.729C32.7865 32.3432 32.5158 32.9983 32.6181 33.7285C32.9411 36.0329 36.8742 38.2781 37.7182 38.733C38.3142 38.0233 41.0007 34.6908 41.3033 32.1134C41.0553 31.7677 39.786 30.1298 37.8502 29.8932C37.6932 29.8751 37.5339 29.8637 37.377 29.8637L37.3747 29.866Z" fill="black"/>
<path d="M38.3119 36.3856L35.6526 39.2404L32.0835 38.6012L34.0034 42.0975L32.0835 45.519L36.0484 44.5338L38.7054 47.6844L38.9283 43.5489L42.9411 42.0361L39.0261 40.5712L38.3119 36.3856Z" fill="#F5D256"/>
<path d="M38.9033 48.2711L35.9666 44.7886L31.6309 45.8668L33.7464 42.0953L31.6581 38.2918L35.5753 38.9947L38.462 35.8942L39.2309 40.4028L43.5894 42.0338L39.149 43.7081L38.9056 48.2689L38.9033 48.2711ZM36.1304 44.279L38.5098 47.0998L38.7077 43.3896L42.2928 42.0361L38.8237 40.7372L38.164 36.8769L35.7345 39.4861L32.5112 38.9083L34.2628 42.0975L32.5385 45.1706L36.1281 44.279H36.1304Z" fill="black"/>
<path d="M41.5376 32.2818C41.4966 32.2818 41.4557 32.2704 41.417 32.2477C41.3101 32.1817 41.2783 32.0407 41.3442 31.9338C42.766 29.6544 43.2801 25.8578 43.2846 25.8214C43.3006 25.6963 43.4166 25.6099 43.5394 25.6258C43.6645 25.6417 43.751 25.7554 43.735 25.8805C43.7146 26.0398 43.2027 29.8114 41.7287 32.1749C41.6855 32.2431 41.6104 32.2818 41.5353 32.2818H41.5376Z" fill="black"/>
<path d="M43.7352 29.0561C43.7352 29.0561 52.3476 28.2963 54.4608 30.2117C56.574 32.1271 57.5635 29.8 58.387 29.5588C59.2105 29.3177 65.416 28.3304 67.8253 28.906V31.5948C67.8253 31.5948 66.9015 31.199 66.7035 31.5948C66.5059 31.9906 65.5821 37.2044 61.7854 37.0065C57.9888 36.8086 57.7525 32.8072 57.4884 32.5888C57.2247 32.3704 55.3185 31.9997 54.6588 32.8709C53.9991 33.7422 53.9329 37.0861 49.8064 37.0133C45.6799 36.9405 44.9977 31.5288 44.9977 31.5288H43.7329V29.0538L43.7352 29.0561Z" fill="#4C70F5"/>
<path d="M49.9359 37.2431H49.8041C45.9962 37.1771 44.9862 32.7595 44.8065 31.7586H43.5076V28.8468L43.7146 28.8287C44.0694 28.7968 52.4519 28.0825 54.6132 30.0411C56.0028 31.3013 56.8061 30.5643 57.5135 29.9115C57.8024 29.6476 58.0503 29.4178 58.3235 29.3382C59.0696 29.1221 65.3957 28.0871 67.8774 28.683L68.0525 28.724V31.9383L67.7361 31.8041C67.377 31.6494 66.9585 31.5971 66.9081 31.6971C66.8901 31.7335 66.8469 31.8837 66.806 32.0292C66.4329 33.3327 65.3115 37.2408 62.0018 37.2408C61.9266 37.2408 61.8537 37.2408 61.7763 37.234C58.535 37.0656 57.7407 34.204 57.4428 33.128C57.4019 32.9801 57.3564 32.8141 57.329 32.7527C57.1746 32.6639 56.4465 32.4797 55.7481 32.5729C55.4547 32.6116 55.0587 32.7208 54.8427 33.0074C54.7176 33.1735 54.6038 33.476 54.4742 33.8264C53.9967 35.1071 53.2007 37.2408 49.9409 37.2408L49.9359 37.2431ZM43.9626 31.3036H45.2001L45.2249 31.5015C45.2321 31.5538 45.9327 36.7199 49.8108 36.7858C52.8708 36.8473 53.5737 34.9319 54.0444 33.6694C54.1875 33.285 54.3104 32.9528 54.4787 32.7344C54.7361 32.3978 55.1726 32.184 55.7481 32.118C56.4897 32.0315 57.3884 32.2113 57.6363 32.416C57.7407 32.5024 57.7839 32.6617 57.882 33.0097C58.1822 34.0925 58.8873 36.6312 61.8015 36.7836C64.9362 36.9451 66.0144 33.153 66.3713 31.9064C66.4397 31.6699 66.4716 31.563 66.5036 31.4947C66.7034 31.0966 67.2402 31.1694 67.602 31.2741V29.0902C65.0816 28.5966 59.1672 29.5702 58.4553 29.7772C58.2848 29.8273 58.0616 30.032 57.8276 30.2481C57.104 30.9123 56.0123 31.9201 54.3126 30.38C52.4771 28.7149 45.2865 29.1676 43.9671 29.2677V31.3059L43.9626 31.3036Z" fill="black"/>
<path d="M56.501 40.0729C55.9736 40.0729 55.1614 39.5565 53.9581 38.4669C53.8649 38.3827 53.8577 38.2394 53.9419 38.1461C54.0265 38.0529 54.1696 38.0461 54.2627 38.1303C56.1532 39.8409 56.5604 39.6225 56.6036 39.5906C57.0086 39.2858 56.2076 36.8996 55.2068 34.8614C55.1524 34.7476 55.1978 34.6134 55.3117 34.5565C55.4251 34.5019 55.5596 34.5474 55.6163 34.6612C56.1419 35.7304 57.7817 39.2722 56.8768 39.9546C56.7719 40.0342 56.6468 40.0729 56.501 40.0729Z" fill="black"/>
<path d="M47.3907 42.9892C47.2678 42.9892 47.1679 42.8936 47.163 42.7708C47.163 42.7344 47.136 41.8472 47.8249 41.2194C48.3802 40.7121 49.2217 40.5279 50.3251 40.6711C50.4502 40.6871 50.5366 40.8008 50.5209 40.9259C50.5047 41.051 50.3913 41.1398 50.2662 41.1215C49.3036 40.9964 48.5872 41.1398 48.1368 41.5492C47.6022 42.0315 47.6179 42.7435 47.6179 42.7526C47.6229 42.8777 47.5248 42.9823 47.3997 42.9869H47.3907V42.9892Z" fill="black"/>
<path d="M52.8047 45.3322C51.2076 45.3322 48.9761 44.4928 48.0414 41.2444C48.0072 41.1239 48.0752 40.9988 48.1958 40.9624C48.3186 40.926 48.4415 40.9965 48.4779 41.1171C49.7883 45.6733 53.5053 44.8158 53.6646 44.7772C53.7875 44.7476 53.9103 44.8227 53.9396 44.9432C53.9693 45.0662 53.8964 45.1891 53.7735 45.2183C53.4986 45.2867 53.1687 45.3299 52.8047 45.3299V45.3322Z" fill="black"/>
<path d="M39.6679 34.9888C39.5929 34.9888 39.5201 34.9524 39.4768 34.8841C39.47 34.8728 38.7034 33.7149 37.3749 33.4579C36.4923 33.285 35.5506 33.542 34.5792 34.2176C34.4769 34.2904 34.3336 34.2631 34.2631 34.1608C34.1902 34.0584 34.2176 33.9151 34.3199 33.8446C35.3982 33.0939 36.4582 32.8141 37.4682 33.012C38.9878 33.31 39.8249 34.5839 39.859 34.6385C39.9272 34.7431 39.8977 34.8841 39.7908 34.9524C39.7521 34.9774 39.7089 34.9888 39.6679 34.9888Z" fill="black"/>
<path d="M22.2452 62.1226C22.2452 62.1226 26.6856 75.1204 34.2788 71.4763C40.7165 68.3871 34.6132 56.4652 34.6132 56.4652L22.2452 62.1226Z" fill="#CC6036"/>
<path d="M31.3581 72.3704C30.5915 72.3704 29.834 72.2156 29.0924 71.906C24.5497 70.0088 22.0952 63.0347 21.9928 62.7386L22.4228 62.591C22.4478 62.6617 24.9137 69.67 29.2676 71.4875C30.7894 72.1225 32.384 72.0496 34.0037 71.2715C35.1911 70.7005 36.01 69.7658 36.4354 68.4941C37.939 63.9811 34.1401 56.597 34.1015 56.5241L34.5041 56.3149C34.6657 56.624 38.4327 63.9424 36.8676 68.6395C36.4036 70.034 35.505 71.06 34.2016 71.6855C33.2439 72.145 32.293 72.3749 31.3581 72.3749V72.3704Z" fill="black"/>
<path d="M35.9052 61.0601C35.63 59.5881 35.2523 58.8353 34.6268 57.5888C34.0399 56.4219 33.2392 54.8226 32.1541 51.831C30.5685 47.4593 31.8401 45.4757 31.8947 45.3938L32.2724 45.6462C32.261 45.6642 31.0827 47.5479 32.5817 51.6767C33.6577 54.6431 34.4539 56.2284 35.0339 57.3863C35.655 58.6238 36.0644 59.4428 36.3533 60.9782L35.9052 61.0623V61.0601Z" fill="black"/>
<path d="M81.1303 62.2315C80.6866 63.1526 78.2706 65.8418 78.2706 65.8418L80.161 69.3176C79.9293 69.6565 79.6903 69.9931 79.4446 70.3252C77.2428 73.3168 74.6607 76.01 71.7694 78.3347C71.2942 74.4814 70.4433 68.3438 69.7746 67.7912C68.794 66.9812 64.4016 65.5709 64.281 60.5233C64.2742 56.4944 65.4249 56.9791 65.4933 57.011C65.4591 56.8792 62.229 45.2435 64.6086 44.0151C66.9994 42.7822 69.3421 53.956 69.3421 53.956C69.3421 53.956 69.9109 42.955 72.8931 43.0301C75.8779 43.1029 73.9056 51.1669 73.9056 51.1669C73.9056 51.1669 75.7299 49.811 76.84 52.0066C76.84 52.0066 78.0478 50.23 79.7992 52.0066C81.5511 53.7832 81.5736 61.3126 81.1303 62.2315Z" fill="#FFD9D4"/>
<path d="M71.5445 78.512C70.4204 69.4062 69.7949 68.1004 69.6289 67.964C69.4628 67.8277 69.1559 67.6544 68.7964 67.4569C67.1084 66.5173 63.9647 64.7659 64.0511 60.5165C64.106 57.8368 64.6744 57.0587 65.0204 56.836C64.8292 56.0804 64.2104 53.551 63.8121 50.9009C63.1799 46.697 63.4054 44.3768 64.5016 43.8126C64.8067 43.6557 65.1365 43.6534 65.4547 43.8058C67.1152 44.5951 68.5804 49.8115 69.2216 52.4296C69.497 49.3151 70.3727 42.8026 72.8617 42.8026H72.8977C73.4008 42.814 73.8103 43.0233 74.1172 43.4259C75.3227 45.0001 74.5514 49.2584 74.2378 50.7259C74.5721 50.5823 75.0545 50.4527 75.5684 50.5756C76.0895 50.6984 76.5283 51.0463 76.8788 51.6128C77.1178 51.3716 77.5385 51.0485 78.1001 50.9986C78.7211 50.9419 79.3471 51.2285 79.9586 51.8495C81.7834 53.7013 81.8311 61.2991 81.3329 62.3341C80.9302 63.1711 79.0262 65.3365 78.5438 65.8778L80.3024 69.1129L80.0041 69.5449L78.0686 65.9552C78.0232 65.8711 78.0344 65.7666 78.0979 65.6937C78.1231 65.6663 80.4977 63.0185 80.9212 62.1361C81.3374 61.2739 81.2875 53.8489 79.6337 52.1704C79.1216 51.6515 78.6167 51.4103 78.1388 51.4535C77.4544 51.5152 77.0287 52.1317 77.0242 52.1384C76.9787 52.2041 76.8991 52.2406 76.8217 52.2383C76.742 52.2338 76.6696 52.1861 76.6331 52.1132C76.3235 51.499 75.9302 51.1331 75.464 51.0215C74.7382 50.8487 74.0443 51.3491 74.0375 51.3536C73.9601 51.4103 73.8557 51.4126 73.7761 51.3604C73.6964 51.3082 73.6577 51.2101 73.6802 51.1169C73.6942 51.0602 75.0568 45.4096 73.7531 43.7057C73.5304 43.4168 73.2482 43.2712 72.8842 43.2621H72.859C70.6117 43.2621 69.7198 50.9851 69.5654 53.9717C69.5587 54.0856 69.4696 54.1787 69.3562 54.1877C69.2423 54.1972 69.1397 54.1198 69.115 54.0082C68.5984 51.5516 66.9014 45.0046 65.2567 44.2221C65.0636 44.1288 64.8886 44.1311 64.7063 44.2221C63.0868 45.059 64.2968 52.277 65.5046 56.9246C65.5276 57.0088 65.4979 57.1019 65.4299 57.1564C65.389 57.1906 65.3363 57.209 65.2841 57.2113C65.1977 57.2567 64.556 57.7 64.4993 60.5345C64.4174 64.5107 67.4063 66.1739 69.0101 67.0676C69.4039 67.2863 69.713 67.4591 69.911 67.6229C70.1203 67.7957 70.7368 68.1778 71.9698 78.1732L71.5373 78.5215L71.5445 78.512Z" fill="black"/>
<path d="M67.9706 60.4616C67.9706 60.4616 70.7367 63.3736 73.5164 60.6803C73.5164 60.6803 74.3331 61.5218 74.861 61.9106C75.7686 62.5775 76.7105 63.5828 77.1879 62.6275C77.6658 61.6721 78.7985 59.0945 78.371 58.3282C78.371 58.3282 77.4017 60.5278 76.5989 60.4526C75.7961 60.3775 75.0657 58.7669 75.0657 58.3781C75.0657 57.9889 73.2801 61.133 72.0359 58.8808C72.0359 58.8808 68.5646 60.5233 67.9728 60.4639L67.9706 60.4616Z" fill="#FEA8A1"/>
<path d="M67.7956 60.7326C67.6908 60.7326 67.5976 60.6597 67.5729 60.5553C67.5454 60.4324 67.6228 60.3118 67.7457 60.2844C68.8536 60.0387 71.8492 59.1378 72.3973 57.9345C72.5251 57.6546 72.5112 57.3774 72.3519 57.084C71.4465 55.4118 67.0041 56.5948 65.3683 57.1929C65.25 57.2361 65.1204 57.1749 65.0772 57.0565C65.034 56.9382 65.0956 56.8086 65.214 56.7654C65.4687 56.6722 71.4762 54.5086 72.7524 56.8675C72.9801 57.2887 73.0003 57.7117 72.8113 58.1257C72.0562 59.7795 68.0161 60.6916 67.8433 60.7303C67.8276 60.7348 67.8091 60.7348 67.7934 60.7348L67.7956 60.7326Z" fill="black"/>
<path d="M76.6874 60.6394C76.4939 60.6394 76.2963 60.6007 76.0938 60.5255C75.7023 60.3775 75.4112 60.0863 75.2294 59.6588C74.2943 57.466 76.5326 52.1429 76.6284 51.9175C76.6761 51.8018 76.8125 51.7469 76.9263 51.7973C77.0424 51.8473 77.0969 51.9791 77.0469 52.0952C77.024 52.1497 74.7857 57.4637 75.6479 59.4815C75.782 59.7952 75.98 59.9977 76.2554 60.1025C76.6055 60.2344 76.9241 60.2114 77.231 60.0296C78.6755 59.1697 79.2146 55.2776 79.2191 55.2389C79.2353 55.1138 79.3487 55.0274 79.4738 55.0432C79.5993 55.0594 79.6857 55.175 79.6695 55.2979C79.647 55.4662 79.0962 59.4451 77.4632 60.4184C77.2152 60.5665 76.956 60.6394 76.6874 60.6394Z" fill="black"/>
<path d="M72.4589 56.8815H72.4499C72.3248 56.877 72.2267 56.7699 72.2312 56.6448C72.3658 53.5533 73.6897 50.9986 73.7441 50.892C73.8031 50.7804 73.9399 50.7372 74.051 50.7961C74.1626 50.8555 74.2058 50.9919 74.1469 51.1035C74.1329 51.1282 72.8135 53.6784 72.6839 56.665C72.6794 56.7879 72.5773 56.8837 72.4567 56.8837L72.4589 56.8815Z" fill="black"/>
<path d="M73.1 59.9702C72.8885 59.9702 72.7022 59.9135 72.5384 59.7997C72.0402 59.4518 71.9993 58.7012 71.997 58.6693C71.9903 58.5442 72.0879 58.4371 72.213 58.4303C72.3359 58.4213 72.4452 58.5212 72.452 58.6463C72.461 58.8011 72.5384 59.2471 72.7998 59.4266C72.9501 59.5315 73.1481 59.5427 73.4028 59.4631C74.274 59.1926 74.9472 57.5002 75.134 56.872C75.17 56.7514 75.2955 56.6834 75.4157 56.7176C75.5363 56.7541 75.6047 56.8792 75.5705 56.9998C75.5408 57.1019 74.8199 59.4973 73.5392 59.8978C73.3844 59.9455 73.2368 59.9702 73.1 59.9702Z" fill="black"/>
<path d="M56.1122 24.4042L57.8433 27.6731C57.8433 27.6731 59.5106 27.2454 59.1492 25.7577C58.7874 24.27 56.1122 24.4042 56.1122 24.4042Z" fill="black"/>
<path d="M52.7457 52.4773C52.7138 52.4773 52.6818 52.4705 52.6521 52.457C52.6044 52.4386 47.798 50.5279 44.3607 47.0908C44.2492 46.9792 44.2492 46.7996 44.3607 46.688C44.4722 46.5764 44.6518 46.5764 44.7633 46.688C48.1188 50.041 52.8137 51.9085 52.8614 51.9269C53.0072 51.9836 53.0801 52.1497 53.0229 52.2955C52.9775 52.4111 52.8659 52.4795 52.748 52.475L52.7457 52.4773Z" fill="black"/>
</svg>
