<svg width="48" height="32" viewBox="0 0 48 32" fill="none" xmlns="http://www.w3.org/2000/svg">
<ellipse cx="23.8677" cy="15.9118" rx="23.8677" ry="15.9118" fill="url(#paint0_linear_9_945)"/>
<path d="M13.6416 22V9.77507H15.912V19.9043H21.5529V22H13.6416ZM24.1474 22V9.77507H29.3518C30.1551 9.77507 30.8304 9.8915 31.3776 10.1244C31.9365 10.3572 32.3556 10.7065 32.635 11.1722C32.9261 11.6263 33.0716 12.1793 33.0716 12.8313C33.0716 13.5066 32.8912 14.0771 32.5302 14.5428C32.1693 15.0085 31.6628 15.3287 31.0109 15.5033L30.9934 15.154C31.5406 15.2705 32.018 15.48 32.4255 15.7828C32.8329 16.0738 33.1473 16.4406 33.3685 16.883C33.6014 17.3138 33.7178 17.8086 33.7178 18.3675C33.7178 18.9612 33.6188 19.4852 33.4209 19.9392C33.2346 20.3933 32.9552 20.7717 32.5826 21.0744C32.2101 21.3771 31.7676 21.61 31.2554 21.773C30.7431 21.9243 30.1667 22 29.5264 22H24.1474ZM26.3654 19.9567H29.4216C29.8524 19.9567 30.2133 19.8927 30.5044 19.7646C30.8071 19.6365 31.0341 19.4502 31.1855 19.2057C31.3485 18.9496 31.43 18.6469 31.43 18.2976C31.43 17.9716 31.3427 17.6922 31.168 17.4593C31.005 17.2265 30.7664 17.0518 30.452 16.9354C30.1376 16.8073 29.7651 16.7433 29.3343 16.7433H26.3654V19.9567ZM26.3654 14.7873H29.1422C29.4798 14.7873 29.7709 14.7233 30.0154 14.5952C30.2715 14.4671 30.4695 14.2925 30.6092 14.0713C30.7489 13.85 30.8187 13.5939 30.8187 13.3028C30.8187 12.8371 30.6616 12.4762 30.3472 12.2201C30.0329 11.9523 29.573 11.8184 28.9675 11.8184H26.3654V14.7873ZM36.6077 22.1921C36.1886 22.1921 35.8626 22.0699 35.6297 21.8254C35.4085 21.5809 35.2979 21.2374 35.2979 20.795C35.2979 20.3875 35.4143 20.0557 35.6472 19.7995C35.8917 19.5317 36.2119 19.3978 36.6077 19.3978C37.0269 19.3978 37.347 19.5201 37.5682 19.7646C37.8011 19.9974 37.9175 20.3409 37.9175 20.795C37.9175 21.2025 37.7953 21.5401 37.5508 21.8079C37.3179 22.064 37.0036 22.1921 36.6077 22.1921Z" fill="white"/>
<defs>
<linearGradient id="paint0_linear_9_945" x1="23.8677" y1="0" x2="23.8677" y2="31.8236" gradientUnits="userSpaceOnUse">
<stop stop-color="#DB76B9"/>
<stop offset="1" stop-color="#E46868"/>
</linearGradient>
</defs>
</svg>
