<svg width="101" height="32" viewBox="0 0 101 32" fill="none" xmlns="http://www.w3.org/2000/svg">
<path d="M23.8682 0C37.0497 0.000163553 47.7354 7.12436 47.7354 15.9121C47.7351 24.6997 37.0496 31.8231 23.8682 31.8232C10.6865 31.8232 0.000245087 24.6998 0 15.9121C0 7.12426 10.6864 0 23.8682 0ZM40.5938 12.1318C40.0816 12.1319 39.5867 12.2308 39.1094 12.4287C38.6437 12.6266 38.2479 12.8889 37.9219 13.2148C37.8313 13.3022 37.7505 13.3914 37.6797 13.4824L37.6602 12.2891H35.5469V25.335H37.7129V20.4043C37.7464 20.4412 37.7809 20.4782 37.8174 20.5146C38.1666 20.8522 38.5853 21.1264 39.0742 21.3359C39.5749 21.5455 40.0933 21.6504 40.6289 21.6504C41.4206 21.6504 42.1311 21.4466 42.7598 21.0391C43.4001 20.6199 43.9008 20.0549 44.2617 19.3447C44.6343 18.6229 44.8203 17.8016 44.8203 16.8818C44.8203 15.9507 44.6342 15.13 44.2617 14.4199C43.9008 13.7098 43.4001 13.1507 42.7598 12.7432C42.1311 12.3357 41.4087 12.1318 40.5938 12.1318ZM17.96 12.0967C17.0402 12.0967 16.2189 12.3065 15.4971 12.7256C14.7753 13.1331 14.2053 13.6981 13.7861 14.4199C13.3671 15.1417 13.1573 15.9622 13.1572 16.8818C13.1572 17.8016 13.367 18.6229 13.7861 19.3447C14.2053 20.0665 14.7753 20.6375 15.4971 21.0566C16.2189 21.4641 17.0402 21.667 17.96 21.667C18.8678 21.6669 19.6826 21.4639 20.4043 21.0566C21.1261 20.6375 21.6911 20.0666 22.0986 19.3447C22.5178 18.6229 22.7275 17.8016 22.7275 16.8818C22.7275 15.9623 22.5177 15.1416 22.0986 14.4199C21.6911 13.6981 21.1262 13.1331 20.4043 12.7256C19.6826 12.3066 18.8678 12.0967 17.96 12.0967ZM28.8574 12.0967C27.9379 12.0967 27.1172 12.3066 26.3955 12.7256C25.6737 13.1331 25.1027 13.6981 24.6836 14.4199C24.2646 15.1416 24.0548 15.9623 24.0547 16.8818C24.0547 17.8016 24.2645 18.6229 24.6836 19.3447C25.1027 20.0666 25.6737 20.6375 26.3955 21.0566C27.1172 21.4639 27.9379 21.667 28.8574 21.667C29.7655 21.667 30.5809 21.4641 31.3027 21.0566C32.0246 20.6375 32.5896 20.0666 32.9971 19.3447C33.4161 18.6229 33.625 17.8015 33.625 16.8818C33.6249 15.9623 33.416 15.1416 32.9971 14.4199C32.5896 13.6981 32.0246 13.1331 31.3027 12.7256C30.5809 12.3065 29.7656 12.0967 28.8574 12.0967ZM3.9707 9.26758V21.4932H11.8818V19.3975H6.24023V9.26758H3.9707ZM17.96 14.001C18.4605 14.001 18.903 14.1287 19.2871 14.3848C19.6829 14.6292 19.9917 14.9668 20.2129 15.3975C20.4457 15.8281 20.5555 16.3232 20.5439 16.8818C20.5556 17.429 20.4457 17.9188 20.2129 18.3496C19.9917 18.7803 19.6829 19.1238 19.2871 19.3799C18.903 19.636 18.4605 19.7636 17.96 19.7637C17.4594 19.7637 17.0051 19.6359 16.5977 19.3799C16.2019 19.1238 15.8931 18.7802 15.6719 18.3496C15.4507 17.9188 15.3398 17.429 15.3398 16.8818C15.3399 16.3348 15.4507 15.8457 15.6719 15.415C15.8931 14.9727 16.2019 14.6292 16.5977 14.3848C17.0051 14.1287 17.4594 14.001 17.96 14.001ZM28.8574 14.001C29.3579 14.001 29.8004 14.1288 30.1846 14.3848C30.5803 14.6292 30.8892 14.9668 31.1104 15.3975C31.3431 15.8281 31.454 16.3232 31.4424 16.8818C31.454 17.429 31.3432 17.9188 31.1104 18.3496C30.8892 18.7802 30.5803 19.1238 30.1846 19.3799C29.8004 19.6359 29.3579 19.7637 28.8574 19.7637C28.3569 19.7636 27.9026 19.636 27.4951 19.3799C27.0995 19.1238 26.7915 18.7801 26.5703 18.3496C26.3491 17.9188 26.2383 17.429 26.2383 16.8818C26.2383 16.3348 26.3492 15.8457 26.5703 15.415C26.7915 14.9729 27.0995 14.6292 27.4951 14.3848C27.9026 14.1287 28.3569 14.001 28.8574 14.001ZM40.1924 14.0352C40.693 14.0352 41.1353 14.1579 41.5195 14.4023C41.9037 14.6468 42.2006 14.9844 42.4102 15.415C42.6197 15.8341 42.7246 16.3232 42.7246 16.8818C42.7246 17.4407 42.6138 17.9364 42.3926 18.3672C42.183 18.7977 41.886 19.1355 41.502 19.3799C41.1178 19.6243 40.6813 19.7461 40.1924 19.7461C39.6802 19.7461 39.2318 19.6243 38.8477 19.3799C38.4752 19.1355 38.1782 18.7978 37.957 18.3672C37.7358 17.9364 37.625 17.4407 37.625 16.8818C37.6251 16.3232 37.7359 15.8281 37.957 15.3975C38.1782 14.9668 38.4752 14.6351 38.8477 14.4023C39.2319 14.1579 39.6801 14.0352 40.1924 14.0352Z" fill="white"/>
<path d="M49.1684 21.4928V9.26787H54.3727C55.1761 9.26787 55.8513 9.3843 56.3986 9.61716C56.9574 9.85001 57.3766 10.1993 57.656 10.665C57.9471 11.1191 58.0926 11.6721 58.0926 12.3241C58.0926 12.9994 57.9121 13.5699 57.5512 14.0356C57.1903 14.5013 56.6838 14.8215 56.0318 14.9961L56.0143 14.6468C56.5616 14.7633 57.0389 14.9728 57.4464 15.2755C57.8539 15.5666 58.1683 15.9334 58.3895 16.3758C58.6223 16.8066 58.7388 17.3014 58.7388 17.8602C58.7388 18.454 58.6398 18.978 58.4419 19.432C58.2556 19.8861 57.9762 20.2645 57.6036 20.5672C57.231 20.8699 56.7886 21.1028 56.2763 21.2658C55.764 21.4171 55.1877 21.4928 54.5474 21.4928H49.1684ZM51.3863 19.4495H54.4426C54.8734 19.4495 55.2343 19.3855 55.5254 19.2574C55.8281 19.1293 56.0551 18.943 56.2065 18.6985C56.3695 18.4424 56.451 18.1397 56.451 17.7904C56.451 17.4644 56.3636 17.185 56.189 16.9521C56.026 16.7193 55.7873 16.5446 55.473 16.4282C55.1586 16.3001 54.786 16.2361 54.3553 16.2361H51.3863V19.4495ZM51.3863 14.2801H54.1631C54.5008 14.2801 54.7919 14.2161 55.0364 14.088C55.2925 13.9599 55.4904 13.7853 55.6301 13.5641C55.7698 13.3428 55.8397 13.0867 55.8397 12.7956C55.8397 12.3299 55.6825 11.969 55.3682 11.7129C55.0538 11.4451 54.5939 11.3112 53.9885 11.3112H51.3863V14.2801ZM59.8299 21.4928L64.5976 9.26787H66.7282L71.461 21.4928H69.1033L66.4837 14.5421C66.4255 14.4023 66.344 14.1811 66.2392 13.8784C66.1461 13.5757 66.0413 13.2497 65.9249 12.9004C65.8084 12.5395 65.7036 12.2077 65.6105 11.905C65.5174 11.5906 65.4475 11.3636 65.4009 11.2239L65.8375 11.2064C65.7677 11.4393 65.6862 11.7012 65.593 11.9923C65.4999 12.2834 65.4009 12.5861 65.2962 12.9004C65.1914 13.2148 65.0866 13.5175 64.9818 13.8086C64.8887 14.0996 64.8013 14.3616 64.7198 14.5944L62.1002 21.4928H59.8299ZM61.9954 18.6985L62.7813 16.7251H68.3524L69.1907 18.6985H61.9954ZM78.2321 21.6674C77.3472 21.6674 76.538 21.5161 75.8045 21.2134C75.071 20.9107 74.4365 20.4799 73.9009 19.921C73.3654 19.3505 72.9462 18.6811 72.6435 17.9126C72.3525 17.1326 72.2069 16.2827 72.2069 15.3629C72.2069 14.478 72.3641 13.6572 72.6784 12.9004C72.9928 12.1436 73.4294 11.48 73.9883 10.9095C74.5471 10.339 75.1991 9.89658 75.9443 9.58223C76.6894 9.26787 77.4986 9.11069 78.3718 9.11069C78.9656 9.11069 79.5419 9.19801 80.1007 9.37266C80.6596 9.5473 81.1719 9.7918 81.6376 10.1062C82.1033 10.4089 82.4933 10.764 82.8077 11.1715L81.3581 12.7607C81.0554 12.4464 80.7411 12.1844 80.4151 11.9748C80.1007 11.7536 79.7689 11.5906 79.4196 11.4858C79.082 11.3694 78.7327 11.3112 78.3718 11.3112C77.8362 11.3112 77.3297 11.4101 76.8524 11.6081C76.3867 11.806 75.9792 12.0854 75.6299 12.4464C75.2923 12.8073 75.0245 13.2381 74.8265 13.7387C74.6286 14.2277 74.5297 14.7749 74.5297 15.3803C74.5297 15.9974 74.6228 16.5563 74.8091 17.0569C75.007 17.5575 75.2806 17.9883 75.6299 18.3492C75.9908 18.7102 76.4158 18.9896 76.9048 19.1875C77.4054 19.3738 77.9526 19.467 78.5464 19.467C78.9306 19.467 79.3032 19.4146 79.6641 19.3098C80.025 19.205 80.3569 19.0595 80.6596 18.8732C80.9739 18.6752 81.2592 18.4482 81.5153 18.1921L82.633 19.9909C82.3536 20.3052 81.981 20.5905 81.5153 20.8466C81.0496 21.1028 80.5257 21.3065 79.9435 21.4579C79.3731 21.5976 78.8026 21.6674 78.2321 21.6674ZM86.7824 17.8428L86.4331 15.5899L92.7202 9.26787H95.5669L86.7824 17.8428ZM84.9836 21.4928V9.26787H87.2539V21.4928H84.9836ZM92.9997 21.4928L88.3717 15.3279L89.9784 13.9483L95.759 21.4928H92.9997ZM98.2455 21.6849C97.8263 21.6849 97.5003 21.5627 97.2675 21.3182C97.0463 21.0737 96.9357 20.7302 96.9357 20.2878C96.9357 19.8803 97.0521 19.5485 97.2849 19.2923C97.5294 19.0245 97.8496 18.8906 98.2455 18.8906C98.6646 18.8906 98.9848 19.0129 99.206 19.2574C99.4389 19.4902 99.5553 19.8337 99.5553 20.2878C99.5553 20.6953 99.433 21.0329 99.1885 21.3007C98.9557 21.5568 98.6413 21.6849 98.2455 21.6849Z" fill="white"/>
</svg>
