<svg width="615" height="383" viewBox="0 0 615 383" fill="none" xmlns="http://www.w3.org/2000/svg">
<path d="M49.1073 171.031C39.2218 222.108 54.5444 257.696 157.685 304.653L456.067 302.346C456.067 302.346 550.969 297.403 561.347 223.92C571.728 150.436 506.976 94.5826 402.848 65.5847C298.72 36.5868 75.1394 36.7518 49.1073 171.031Z" fill="#FFFD9E"/>
<path d="M256.048 220.623C256.048 220.623 207.773 191.131 231.499 164.605C231.499 164.605 228.203 151.754 247.645 147.47C267.087 143.186 269.393 145.987 275.984 137.255C282.574 128.358 256.048 220.623 256.048 220.623Z" fill="black"/>
<path d="M247.148 195.746C245.17 189.813 241.546 187.013 242.04 181.411C242.534 175.809 242.04 168.065 242.04 168.065C242.04 168.065 261.646 167.736 275.157 149.612C323.267 142.527 328.375 139.397 327.88 143.845C327.385 148.294 306.956 171.525 309.263 174.985C311.569 178.61 329.032 215.35 332.493 247.315C332.493 247.315 291.303 278.455 253.409 258.353C253.244 258.188 254.068 253.245 254.068 252.918C254.562 248.302 254.726 243.524 254.726 238.911C254.726 227.378 253.409 215.845 250.113 204.807C250.772 207.114 246.489 210.737 245.006 212.057C241.546 215.185 237.262 217.492 232.484 217.987C226.882 218.482 221.445 214.364 220.95 208.101C220.456 202.501 223.587 198.053 228.2 195.251C229.024 194.756 229.683 194.261 230.671 194.096C235.779 193.275 249.948 204.312 247.148 195.746Z" fill="#FFD1D1"/>
<path d="M280.757 266.757C271.53 266.757 261.809 264.778 252.418 259.835C251.264 259.178 251.264 258.518 252.088 253.575C252.088 253.245 252.253 252.915 252.253 252.75C252.747 248.137 252.912 243.524 252.912 238.746C252.912 228.368 251.923 218.647 249.617 209.585C248.628 210.737 247.475 211.727 246.322 212.879L245.992 213.209C242.038 216.835 237.26 219.141 232.482 219.468C229.186 219.798 225.891 218.647 223.42 216.505C220.949 214.363 219.301 211.397 219.136 207.935C218.642 202.171 221.608 197.063 227.045 193.601C227.869 193.109 228.857 192.45 230.175 192.285C232.811 191.79 236.436 193.436 239.896 195.086C241.708 195.908 244.509 197.063 245.663 197.228C245.663 197.063 245.498 196.568 245.333 196.073C244.674 193.931 243.685 192.285 242.861 190.637C241.214 187.836 239.731 185.035 240.226 181.081C240.72 175.644 240.226 168.064 240.226 168.064L240.061 166.252H241.873C242.038 166.252 260.821 165.593 273.672 148.458L274.001 147.964L274.661 147.799C290.972 145.328 302.505 143.351 310.249 142.032C323.924 139.726 326.725 139.232 328.372 140.879C329.362 141.868 329.197 143.351 329.197 143.845C328.867 145.986 325.9 150.106 320.792 157.355C316.839 162.792 310.249 171.854 310.414 173.996C313.378 178.774 330.348 215.185 333.81 246.985L333.975 247.972L333.15 248.467C332.985 248.962 308.93 266.757 280.757 266.757ZM254.889 257.366C288.336 274.499 324.914 250.608 330.513 246.655C326.89 216.01 310.084 179.927 307.613 175.973C305.8 173.172 309.425 167.735 318.156 155.708C321.452 151.259 325.9 145.163 326.065 143.68V143.515C324.584 143.186 318.981 144.174 310.906 145.657C303.329 146.975 291.96 148.952 275.979 151.259C264.28 166.417 248.793 169.218 243.685 169.712C243.85 172.348 244.015 177.456 243.685 181.575C243.356 184.541 244.509 186.682 245.992 189.319C246.981 190.966 247.969 192.944 248.793 195.251C249.122 196.073 249.946 198.544 248.299 199.864C246.486 201.511 243.026 200.029 238.743 198.214C235.942 197.063 232.482 195.416 230.834 195.743C230.175 195.908 229.516 196.238 229.022 196.568C226.386 198.214 222.102 201.841 222.596 207.935C222.761 210.407 223.914 212.714 225.727 214.198C227.539 215.845 230.01 216.505 232.317 216.34C236.271 216.01 240.39 214.033 243.85 210.902L244.344 210.572C248.628 206.784 248.628 205.629 248.628 205.299L251.759 204.312C254.889 214.855 256.537 226.556 256.372 238.911C256.372 243.689 256.042 248.467 255.713 253.08C255.713 253.245 255.713 253.575 255.548 254.07C255.219 254.73 255.054 256.376 254.889 257.366Z" fill="black"/>
<path d="M544.871 59.653C544.871 59.653 539.928 58.1701 539.601 66.4083C539.271 74.6462 534.493 134.29 534.493 134.29L574.695 138.079C574.695 138.079 579.308 139.067 580.129 133.466C580.954 127.699 584.581 69.2092 584.581 69.2092C584.581 69.2092 586.392 62.1245 582.274 61.1359C578.483 59.9826 544.871 59.653 544.871 59.653Z" fill="#FFD1D1"/>
<path d="M575.685 139.727C575.19 139.727 574.86 139.727 574.695 139.562L532.847 135.608L533.012 133.961C533.012 133.301 537.79 74.1525 538.12 66.0793C538.285 62.4544 539.271 59.9829 541.248 58.665C542.898 57.5117 544.709 57.6763 545.369 57.841C549.487 57.841 579.143 58.3353 583.099 59.3239C584.416 59.6536 585.406 60.3126 586.062 61.4658C587.712 64.102 586.887 68.2212 586.557 69.2095C586.392 73.1639 582.934 127.7 582.109 133.301C581.779 135.608 580.793 137.42 579.308 138.409C577.826 139.562 576.509 139.727 575.685 139.727ZM575.19 136.432C575.19 136.432 576.344 136.597 577.331 135.937C577.991 135.443 578.486 134.455 578.651 133.137C579.473 127.535 583.099 69.7038 583.099 69.0448V68.7151C583.429 67.2325 583.756 64.5963 582.934 63.2781C582.769 62.9488 582.439 62.7838 582.109 62.6191C579.308 61.9601 558.384 61.4658 544.874 61.3012H544.379C544.214 61.3012 543.555 61.1362 542.898 61.6305C541.908 62.2898 541.413 64.102 541.248 66.4086C540.918 73.6582 536.965 123.086 536.305 132.642L575.19 136.432Z" fill="black"/>
<path d="M153.894 330.189C131.157 284.385 102.324 224.246 92.9325 210.902C83.5413 197.558 73.6558 181.41 70.3607 178.939C67.0652 176.467 65.7472 170.042 68.8777 165.428C68.8777 165.428 51.9072 157.52 55.3674 144.009L49.1064 138.737C49.1064 138.737 33.7838 146.975 22.9093 137.749C22.9093 137.749 16.1543 142.691 8.41056 138.572C0.666814 134.453 1.65536 124.073 3.6325 122.261C3.6325 122.261 -1.63984 112.705 6.10391 108.092C6.10391 108.092 2.3144 94.0872 17.6373 91.7803C17.6373 91.7803 30.4883 70.032 53.3902 89.968C53.3902 89.968 62.7814 89.1441 67.3948 95.4051C72.0082 101.666 76.127 110.563 76.127 110.563C76.127 110.563 80.0815 109.08 83.706 112.376C87.3308 115.671 98.6993 127.533 98.6993 127.533C98.6993 127.533 104.631 123.414 110.397 129.181C116.164 134.948 120.448 143.186 125.061 143.186C129.674 143.186 132.146 147.634 137.253 155.543C142.361 163.616 147.798 169.712 156.036 177.621C164.274 185.364 174.654 196.403 187.67 211.727C200.851 227.048 212.714 239.241 222.105 247.315C231.496 255.387 251.927 271.862 255.386 253.41C255.386 253.41 290.48 270.546 331.837 238.581C331.837 238.581 332.658 236.604 335.79 240.561C338.921 244.679 338.756 251.268 356.219 242.537C373.685 233.803 385.382 230.509 398.727 218.647C412.239 206.949 445.356 170.701 462.984 167.406C462.984 167.406 471.058 143.35 492.642 148.787C492.642 148.787 508.953 132.312 512.579 129.84C512.579 129.84 514.556 109.574 539.763 97.8767C553.272 92.9336 563.983 101.995 559.535 106.774C555.087 111.552 536.467 109.904 534.985 124.733V134.124L561.677 136.595C561.677 136.595 560.357 145.657 541.905 154.719C541.905 154.719 543.551 157.685 542.07 160.486C540.588 163.286 527.405 174.984 526.91 178.774C526.419 182.563 512.906 210.572 506.811 223.425C500.717 236.274 478.473 269.391 472.705 283.068C466.94 296.743 449.639 322.28 448.488 324.916" fill="#FFD1D1"/>
<path d="M152.412 330.849C148.128 322.28 143.844 313.384 139.231 304.157C119.459 263.956 99.0292 222.435 91.4502 211.727C88.1551 207.114 84.8596 202.171 81.7294 197.393C76.292 189.154 71.1846 181.575 69.2073 180.092C65.7475 177.456 64.0999 171.195 66.4065 165.923C62.1227 163.451 51.0839 156.037 53.3904 144.504L48.6123 140.55C44.9875 142.197 32.4658 147.14 22.5803 139.561C20.1088 140.879 14.1774 143.351 7.42226 139.726C3.46799 137.584 1.16133 133.959 0.5023 129.181C0.172783 126.38 0.502299 123.579 1.49088 121.767C-0.321494 117.813 -1.47483 111.058 4.12702 106.938C3.7975 104.797 3.46799 100.018 6.10416 96.0643C8.24605 92.7692 11.706 90.7919 16.4839 89.9683C17.9669 87.8264 23.0746 81.2358 31.4772 79.9178C38.5618 78.7646 45.9761 81.5654 53.7201 88.1557C56.1913 88.1557 64.0999 88.3204 68.3837 94.4168C72.0085 99.5242 75.3037 105.95 76.6216 108.751C78.4339 108.421 81.5644 108.586 84.3656 111.222C87.4958 114.023 95.734 122.591 98.5349 125.557C101.5 124.238 106.608 123.415 111.057 128.028C113.034 130.005 114.846 132.147 116.494 134.289C119.459 137.914 122.26 141.373 124.567 141.373C129.839 141.373 132.64 145.822 137.418 153.236L138.242 154.554C143.02 162.133 148.292 168.229 156.695 176.303C165.428 184.706 176.137 196.238 188.494 210.572C201.345 225.566 213.208 237.759 222.764 245.995C227.542 249.952 241.876 262.306 248.961 259.838C251.103 259.013 252.586 256.871 253.245 253.08L253.575 250.938L255.551 251.928C255.881 252.093 290.151 268.239 330.022 237.429C330.352 236.934 331.012 236.439 331.672 236.439C333.648 236.274 335.295 238.089 336.45 239.571C336.945 240.231 337.436 241.052 337.766 241.712C339.578 245.009 341.228 247.81 354.737 241.217C359.185 239.076 363.303 237.099 367.095 235.452C378.298 230.344 387.029 226.226 396.915 217.657C400.047 215.02 404.165 210.902 408.943 206.289C425.089 190.802 446.838 169.547 460.842 166.252C461.667 164.275 463.643 159.662 467.6 155.213C474.025 147.964 482.096 145.328 491.16 147.305C494.124 144.339 505.986 132.477 510.108 129.346C510.764 125.392 514.886 107.597 538.116 96.7233C547.673 93.0985 556.734 96.229 560.03 101.007C561.677 103.479 561.512 106.115 559.7 108.092C557.889 110.069 554.757 110.893 551.131 112.046C544.376 114.023 536.632 116.165 535.645 125.062V132.806L562.667 135.442L562.337 137.09C562.337 137.419 560.687 146.646 543.059 155.708C543.554 157.19 543.716 159.332 542.565 161.474C541.905 162.792 539.928 164.769 536.632 168.229C533.338 171.689 527.735 177.456 527.57 179.104C527.24 181.904 520.981 195.908 507.306 224.246C504.505 230.014 498.572 239.901 492.312 250.117C484.567 262.966 476.496 276.314 473.365 283.725C469.246 293.281 459.525 308.77 453.757 318.162C451.451 321.785 449.474 324.916 449.144 325.741L446.181 324.421C446.508 323.6 447.993 321.128 450.959 316.515C456.724 307.289 466.28 291.965 470.233 282.573C473.53 274.994 481.604 261.484 489.511 248.632C495.773 238.419 501.703 228.533 504.34 222.93C517.192 196.073 523.947 181.245 524.277 178.774C524.607 176.138 528.395 172.019 534.325 165.923C536.632 163.616 539.268 160.815 539.598 159.992C540.588 158.014 539.433 155.872 539.433 155.872L538.611 154.389L540.093 153.566C552.616 147.469 556.899 141.373 558.38 138.408L532.348 135.936V124.897C533.503 113.858 543.059 111.058 550.144 109.08C553.272 108.257 556.074 107.268 557.229 106.115C558.05 105.291 558.05 104.302 557.229 102.984C555.087 99.8538 548.003 96.7233 539.268 99.8538C515.378 111.058 513.071 130.335 513.071 130.499V131.323L512.414 131.817C509.613 133.63 497.255 145.987 492.807 150.435L492.147 151.094L491.16 150.93C482.921 148.788 475.671 151.094 469.906 157.52C465.455 162.463 463.478 168.229 463.478 168.394L463.148 169.383L462.162 169.547C449.144 172.019 426.244 194.261 410.919 208.925C406.141 213.539 401.858 217.657 398.73 220.458C388.514 229.354 379.453 233.476 368.082 238.746C364.293 240.56 360.175 242.372 355.727 244.514C340.568 251.928 337.271 248.797 334.308 243.854C333.978 243.197 333.648 242.537 333.153 242.042C332.332 241.052 331.837 240.56 331.507 240.396C295.259 268.404 263.131 259.178 255.222 256.211C254.069 260 252.092 262.471 249.291 263.461C241.382 266.263 229.355 257.201 219.799 249.127C210.078 240.887 198.215 228.533 185.199 213.374C173.007 199.039 162.297 187.506 153.565 179.268C144.833 171.03 139.56 164.77 134.617 157.026L133.793 155.708C129.18 148.458 127.038 145.328 123.743 145.328C119.954 145.328 116.823 141.373 113.198 136.925C111.551 134.948 109.903 132.806 107.926 130.829C103.313 126.216 98.8642 129.016 98.3702 129.346L97.2166 130.17L96.2283 129.181C96.0633 129.016 84.8596 117.318 81.3997 114.023C78.5989 111.552 75.633 112.54 75.4683 112.54L73.9854 113.035L73.3265 111.717C73.3265 111.552 69.2073 102.984 64.7589 96.7233C60.8047 91.2862 52.4018 91.9452 52.2372 91.9452H51.5782L51.0839 91.4509C43.9992 85.1902 37.2439 82.554 30.9829 83.5426C22.5803 84.8606 17.8022 92.6042 17.8022 92.7692L17.4726 93.4281L16.6489 93.5928C12.5298 94.2521 9.56412 95.7347 7.75177 98.3709C5.1156 102.49 6.43367 107.762 6.43367 107.927L6.76319 109.08L5.77464 109.739C-0.486252 113.529 3.63274 121.437 3.96226 121.767L4.62133 122.92V123.415C4.29181 123.744 3.46799 126.216 3.96226 129.346C4.29181 131.817 5.60988 135.112 9.2346 137.09C15.9898 140.714 21.7563 136.595 22.086 136.431L23.0746 135.607L24.0629 136.431C33.9487 144.833 48.2827 137.254 48.2827 137.254L49.2713 136.76L57.1799 143.351L56.8503 144.339C53.7201 156.367 69.2073 163.781 69.3723 163.781L71.1846 164.605L70.1959 166.252C67.5597 170.042 68.713 175.479 71.3492 177.456C73.6561 179.268 77.7749 185.529 84.5302 195.581C87.6607 200.359 90.9559 205.137 94.0864 209.75C101.83 220.788 122.26 262.306 142.032 302.672C146.48 311.737 150.929 320.798 155.212 329.364L152.412 330.849Z" fill="black"/>
<path d="M580.789 110.069C580.789 110.069 574.53 124.568 578.813 124.897C583.096 125.227 586.722 123.414 589.194 120.614C591.665 117.813 595.454 101.336 580.789 110.069Z" fill="#FFD1D1"/>
<path d="M579.799 126.545H578.813C577.823 126.545 577.001 125.886 576.341 125.062C574.365 121.767 578.153 112.211 579.308 109.41L579.473 108.916L579.964 108.586C585.567 105.291 589.52 104.797 591.665 107.433C594.794 111.058 592.322 119.131 590.51 121.437C587.874 124.898 583.921 126.545 579.799 126.545ZM579.143 123.25C582.601 123.415 585.897 122.096 588.039 119.625C589.194 118.142 591.005 111.881 589.194 109.739C588.204 108.586 585.567 109.245 582.109 111.222C579.964 116.495 578.483 121.932 579.143 123.25Z" fill="black"/>
<path d="M578.318 101.173C578.318 101.173 573.54 113.365 577.163 113.036C580.786 112.706 593.474 110.399 593.474 101.173C593.474 91.9464 578.318 101.173 578.318 101.173Z" fill="#FFD1D1"/>
<path d="M577.001 114.684C576.176 114.684 575.354 114.354 574.859 113.53C573.048 111.059 575.354 104.304 576.836 100.349L577.001 99.855L577.496 99.5257C579.308 98.537 588.204 93.2647 592.652 95.9009C593.807 96.5598 595.124 97.8781 595.124 101.008C595.124 110.729 583.426 114.189 577.331 114.519C577.166 114.684 577.166 114.684 577.001 114.684ZM579.638 102.327C578.153 106.116 577.166 110.07 577.496 111.388C579.803 111.059 591.995 109.247 591.995 101.173C591.995 99.5257 591.335 99.196 591.17 99.0314C589.029 97.8781 583.261 100.185 579.638 102.327Z" fill="black"/>
<path d="M591.002 93.4285C590.675 89.4744 585.897 87.4971 581.776 89.3097C577.658 91.122 569.913 102.326 577.163 102.82C584.412 103.314 591.827 102.985 591.002 93.4285Z" fill="#FFD1D1"/>
<path d="M580.459 104.632C579.304 104.632 578.153 104.632 576.998 104.468C573.54 104.303 572.715 101.996 572.55 101.007C571.728 96.7236 577.328 89.4743 580.954 87.8267C583.591 86.6734 586.719 86.6734 589.191 88.156C591.167 89.3096 592.322 91.1219 592.487 93.4284C592.817 97.0532 591.992 99.8541 590.18 101.667C587.874 104.138 584.247 104.632 580.459 104.632ZM584.907 90.2979C584.082 90.2979 583.096 90.4629 582.271 90.7922C579.634 91.9455 575.351 97.8769 575.681 100.348C575.681 100.513 575.846 101.007 577.163 101.172C581.281 101.337 585.732 101.502 587.874 99.3598C589.026 98.2065 589.521 96.2293 589.191 93.5934C589.026 92.1105 588.204 91.4515 587.379 90.9572C586.719 90.4629 585.897 90.2979 584.907 90.2979Z" fill="black"/>
<path d="M585.237 70.197C585.237 70.197 600.562 74.6455 588.039 87.9911L584.413 87.8265L585.237 70.197Z" fill="#FFD1D1"/>
<path d="M588.699 89.6391L582.769 89.3098L583.756 67.8909L585.732 68.5498C586.062 68.7145 592.817 70.6917 594.302 76.2938C595.289 80.0833 593.642 84.367 589.194 88.9801L588.699 89.6391ZM586.227 86.1793H587.382C590.511 82.7191 591.83 79.5889 591.17 77.1174C590.511 74.8108 588.534 73.3279 586.887 72.504L586.227 86.1793Z" fill="black"/>
<path d="M531.688 51.9086C531.197 51.9086 530.702 51.7439 530.207 51.4142L524.604 46.9658C523.452 46.1418 523.287 44.4943 524.112 43.506C524.934 42.5174 526.584 42.1877 527.57 43.0117L533.173 47.4601C534.325 48.2837 534.49 49.9313 533.668 50.9199C533.173 51.5792 532.513 51.9086 531.688 51.9086Z" fill="black"/>
<path d="M536.47 47.4603C535.645 47.4603 534.655 46.966 534.325 46.1421L531.032 39.8814C530.372 38.7281 530.867 37.2452 532.018 36.5862C533.173 35.9272 534.655 36.4212 535.315 37.5748L538.611 43.8355C539.268 44.9888 538.776 46.4717 537.621 47.1307C537.291 47.2957 536.797 47.4603 536.47 47.4603Z" fill="black"/>
<path d="M527.402 80.907C527.237 80.907 526.907 80.907 526.742 80.7423L518.011 78.1061C516.694 77.7768 516.034 76.2939 516.364 74.9756C516.694 73.6577 518.176 72.9987 519.492 73.328L528.227 75.9642C529.544 76.2939 530.204 77.7768 529.874 79.0948C529.379 80.248 528.392 80.907 527.402 80.907Z" fill="black"/>
<path d="M591.009 48.4494C590.514 48.4494 589.857 48.2844 589.362 47.7904C588.372 46.9664 588.207 45.3188 589.032 44.3302L594.47 37.9046C595.292 36.9159 596.942 36.7513 597.928 37.5752C598.918 38.3989 599.083 40.0464 598.258 41.0351L592.82 47.4607C592.329 48.1197 591.669 48.4494 591.009 48.4494Z" fill="black"/>
<path d="M603.033 74.8114C601.878 74.8114 600.891 74.1521 600.726 72.9988C600.397 71.6809 601.056 70.3627 602.373 69.8683L611.434 67.2325C612.754 66.9028 614.071 67.5618 614.566 68.8801C614.896 70.198 614.236 71.5163 612.919 72.0102L603.858 74.6464C603.528 74.8114 603.363 74.8114 603.033 74.8114Z" fill="black"/>
<path d="M609.788 85.1917H609.293L602.538 83.8737C601.218 83.5441 600.232 82.3908 600.562 81.0729C600.727 79.7546 602.043 78.766 603.363 79.0956L610.118 80.4136C611.434 80.7432 612.424 81.8965 612.094 83.2145C612.094 84.3681 610.939 85.1917 609.788 85.1917Z" fill="black"/>
<path d="M261.973 188.002C261.149 188.002 260.49 187.343 260.325 186.519C260.325 186.189 259.666 180.258 263.291 177.457C265.598 175.644 269.058 175.48 273.506 176.962C274.33 177.292 274.824 178.281 274.495 179.104C274.165 179.928 273.177 180.423 272.353 180.093C270.046 179.269 267.081 178.61 265.268 179.928C262.961 181.741 263.456 186.024 263.456 186.024C263.62 186.848 262.961 187.672 261.973 187.837C262.138 188.002 262.138 188.002 261.973 188.002Z" fill="black"/>
<path d="M280.763 175.644C280.598 175.644 280.433 175.644 280.268 175.479C279.445 175.15 278.95 174.326 279.28 173.337C279.28 173.173 281.257 167.571 285.705 166.582C288.342 165.923 290.978 167.076 293.779 169.712C294.438 170.372 294.438 171.36 293.779 172.019C293.12 172.678 292.131 172.678 291.472 172.019C289.66 170.207 288.012 169.383 286.529 169.712C284.388 170.207 282.905 173.337 282.41 174.326C282.081 175.15 281.422 175.644 280.763 175.644Z" fill="black"/>
<path d="M287.519 206.289C281.917 206.289 276.644 203.652 276.315 203.487C275.491 203.157 275.162 202.171 275.656 201.346C275.985 200.524 277.139 200.194 277.798 200.686C277.963 200.686 286.53 204.972 292.462 202.006C295.262 200.524 296.91 197.723 297.734 193.275C297.899 192.45 298.722 191.79 299.546 191.955C300.37 192.12 301.029 192.945 300.864 193.766C300.04 199.204 297.734 202.992 293.944 204.972C291.803 205.959 289.661 206.289 287.519 206.289Z" fill="black"/>
<path d="M232.817 209.585H232.488C231.664 209.42 231.005 208.43 231.17 207.609C231.829 204.972 234.3 200.194 240.067 200.854C240.891 201.019 241.55 201.841 241.55 202.666C241.55 203.487 240.561 204.147 239.737 204.147C235.619 203.652 234.465 207.774 234.465 208.265C234.3 209.09 233.641 209.585 232.817 209.585Z" fill="black"/>
<path d="M276.646 287.187C261.982 287.187 251.932 270.051 251.437 269.229C250.943 268.404 251.273 267.414 252.097 266.922C252.92 266.428 253.909 266.757 254.403 267.579C254.568 267.744 264.124 283.89 276.81 283.89H276.975C285.213 283.89 293.122 277.135 300.536 263.791L301.525 261.979L303.008 263.461C303.172 263.626 317.014 277.135 326.405 273.677C331.51 271.701 334.641 264.781 335.631 253.08C335.631 252.093 336.453 251.433 337.443 251.598C338.429 251.598 339.089 252.423 338.924 253.41C337.938 266.593 334.146 274.499 327.722 276.97C318.33 280.432 306.632 271.206 302.349 267.579C294.44 280.432 285.872 287.187 276.646 287.187Z" fill="black"/>
<path d="M330.682 382.583C329.695 382.583 329.035 381.759 329.035 380.937L329.2 378.795C329.53 369.731 330.352 354.74 325.574 351.113C324.587 350.292 323.267 350.127 321.455 350.618C317.997 351.608 315.526 351.443 313.876 350.127C311.239 347.985 311.569 343.534 311.899 338.921C312.064 337.439 312.229 335.792 312.229 334.308C307.286 337.274 303.168 337.439 300.366 334.967C292.952 328.543 298.06 304.982 301.355 298.228C305.804 289.658 301.355 279.607 301.355 279.442C301.026 278.62 301.355 277.63 302.179 277.3C303.003 276.974 303.991 277.3 304.321 278.125C304.486 278.62 309.428 289.658 304.321 299.709C302.838 302.841 300.861 309.76 300.037 317.01C299.213 324.751 300.202 330.354 302.508 332.496C304.98 334.638 309.428 332.331 312.724 330.024L314.866 328.543L315.196 331.179C315.526 333.651 315.361 336.449 315.031 339.251C314.701 342.712 314.371 346.5 315.691 347.655C316.512 348.312 317.997 348.15 320.304 347.49C323.102 346.665 325.409 346.995 327.388 348.477C333.318 353.09 332.658 368.084 332.167 378.96L332.002 381.102C332.332 381.923 331.672 382.583 330.682 382.583Z" fill="black"/>
<path d="M305.637 318.657C306.546 318.657 307.284 317.256 307.284 315.525C307.284 313.798 306.546 312.397 305.637 312.397C304.727 312.397 303.989 313.798 303.989 315.525C303.989 317.256 304.727 318.657 305.637 318.657Z" fill="black"/>
<path d="M340.073 359.023C340.982 359.023 341.72 357.622 341.72 355.891C341.72 354.164 340.982 352.763 340.073 352.763C339.161 352.763 338.423 354.164 338.423 355.891C338.423 357.622 339.161 359.023 340.073 359.023Z" fill="black"/>
<path d="M385.382 314.374C383.076 314.374 380.109 314.374 376.486 314.209C370.553 314.044 363.963 313.879 358.69 314.044C357.704 314.044 357.044 313.384 357.044 312.397C357.044 311.407 357.704 310.747 358.69 310.747C364.128 310.582 370.718 310.747 376.651 310.912C382.254 311.077 388.679 311.242 389.665 310.912C390.49 310.582 391.48 311.077 391.807 311.902C392.137 312.727 391.645 313.714 390.82 313.879C389.83 314.209 388.184 314.374 385.382 314.374Z" fill="black"/>
<path d="M375.166 331.179H374.839C374.015 331.014 373.355 330.024 373.685 329.203C374.18 327.553 373.85 321.128 373.685 317.34C373.52 314.373 373.685 303.006 373.685 302.511C373.685 301.686 374.509 300.864 375.331 300.864C376.321 300.864 376.981 301.686 376.981 302.511C376.981 302.676 376.816 314.208 376.981 317.01C376.981 317.175 377.638 327.061 376.981 330.024C376.651 330.519 375.991 331.179 375.166 331.179Z" fill="black"/>
<path d="M381.594 324.751C381.429 324.751 381.429 324.751 381.594 324.751C380.604 324.751 379.944 323.93 379.944 323.105C380.109 320.468 380.109 317.832 379.944 312.889C379.779 307.946 379.944 304.817 379.944 304.652C379.944 303.663 380.769 303.006 381.759 303.168C382.746 303.168 383.406 303.992 383.241 304.982C383.241 304.982 383.076 307.946 383.241 312.724C383.406 317.832 383.406 320.468 383.241 323.105C383.076 323.93 382.416 324.751 381.594 324.751Z" fill="black"/>
<path d="M39.3867 125.392C38.7278 125.392 38.0688 124.898 37.7392 124.238C37.7392 124.238 36.5859 120.12 37.4098 115.506C33.62 118.142 29.6659 120.12 26.7004 118.801C23.8992 117.483 22.9109 113.859 23.7345 107.763V107.598C26.3707 96.8885 41.0343 89.3096 53.0621 88.4856C54.0503 88.4856 54.7096 89.1446 54.8743 89.9685C54.8743 90.9571 54.2153 91.6161 53.3914 91.7808C41.1993 92.6047 29.1716 100.184 27.0297 108.257C26.5354 112.376 27.0297 115.342 28.183 115.836C30.3249 116.825 35.4326 113.2 40.0457 109.246C41.1993 107.598 42.6819 105.95 44.8238 104.632C45.4831 104.138 46.4714 104.302 46.9657 104.962C47.46 105.621 47.46 106.609 46.9657 107.104C46.3067 107.927 44.6591 109.575 42.5173 111.552C39.2221 116.989 40.8697 123.085 41.0343 123.415C41.364 124.238 40.8697 125.227 39.881 125.392H39.3867Z" fill="black"/>
<path d="M20.1091 134.454C12.8597 134.454 3.46837 124.569 2.31506 123.25C1.656 122.592 1.82079 121.603 2.47982 120.944C3.13885 120.285 4.12741 120.45 4.78647 121.109C9.07023 125.722 17.3082 132.477 21.4273 130.994C23.7339 130.17 24.5579 126.546 24.7225 123.58C24.7225 122.592 25.5461 122.097 26.5348 122.097C27.5234 122.097 28.1824 122.921 28.0177 123.91C27.5234 129.512 25.7111 132.971 22.416 134.125C21.592 134.29 20.933 134.454 20.1091 134.454Z" fill="black"/>
<path d="M24.2282 125.886C17.4732 125.886 6.76364 111.881 4.62174 109.081C4.12747 108.422 4.29223 107.268 4.95129 106.774C5.61033 106.28 6.76364 106.444 7.25791 107.104C13.3541 115.177 21.592 123.415 24.5578 122.591C25.3814 122.426 25.8758 120.943 26.0407 118.472C26.0407 117.483 26.8644 116.989 27.853 116.989C28.8416 116.989 29.5006 117.813 29.3359 118.801C29.0063 122.756 27.6883 125.062 25.3814 125.886C25.0521 125.721 24.7225 125.886 24.2282 125.886Z" fill="black"/>
<path d="M24.8836 109.411C21.7534 109.411 19.4465 108.423 17.7989 106.281C13.68 101.173 15.8219 91.6172 15.9866 91.2876C16.1514 90.4639 17.14 89.8047 17.9636 90.1343C18.7875 90.299 19.4465 91.2876 19.1172 92.1115C18.6229 94.4181 17.6343 101.173 20.2705 104.304C21.4237 105.622 23.0713 106.281 25.3779 106.116C26.2018 106.116 27.0255 106.775 27.0255 107.764C27.0255 108.752 26.3665 109.411 25.3779 109.411H24.8836Z" fill="black"/>
<path d="M31.4807 99.8548H31.1511C29.1739 99.5255 28.3502 98.3719 28.0206 97.5483C27.032 94.9121 29.6682 91.4522 30.1625 90.7929C30.6568 90.134 31.8101 89.9693 32.4694 90.6283C33.1283 91.1226 33.293 92.2759 32.7987 92.9348C31.6454 94.2531 30.9864 96.0653 31.1511 96.5596C31.1511 96.5596 31.3158 96.7243 31.8101 96.7243C32.634 96.8893 33.293 97.7129 33.1283 98.7015C32.9633 99.1958 32.1397 99.8548 31.4807 99.8548Z" fill="black"/>
<path d="M22.9051 139.396C22.2458 139.396 21.7518 139.067 21.4222 138.408C21.0925 137.584 21.4222 136.596 22.0811 136.266C22.2458 136.101 23.3994 135.113 22.2458 131.488C22.0811 130.664 22.5755 129.676 23.3994 129.511C24.223 129.346 25.2117 129.84 25.3763 130.664C27.1889 137.419 23.8937 139.231 23.3994 139.396H22.9051Z" fill="black"/>
<path d="M49.1103 140.386C48.616 140.386 48.1217 140.056 47.792 139.562C47.298 138.738 47.4627 137.75 48.2863 137.255C55.7006 132.477 55.536 129.017 55.536 128.853C55.536 128.029 56.0303 127.205 57.0189 127.04C57.8425 126.876 58.6665 127.535 58.8311 128.359C58.9958 128.853 59.4901 133.96 50.0989 139.892C49.6046 140.221 49.4399 140.386 49.1103 140.386Z" fill="black"/>
<path d="M68.8729 167.076C68.5435 167.076 68.3785 167.076 68.0492 166.912C67.2253 166.417 66.8959 165.429 67.3903 164.605C67.8842 163.616 80.5709 139.891 97.3764 126.216C98.0354 125.721 99.189 125.721 99.6833 126.38C100.177 127.04 100.177 128.193 99.5183 128.687C83.3718 141.868 70.5204 165.758 70.5204 165.923C70.0261 166.747 69.3672 167.076 68.8729 167.076Z" fill="black"/>
<path d="M55.3729 145.659H55.0432C54.2196 145.494 53.5603 144.67 53.7253 143.681C53.89 142.858 58.1738 123.251 74.6499 109.411C75.3089 108.752 76.4622 108.917 76.9565 109.576C77.6155 110.235 77.4508 111.388 76.7915 111.883C61.1393 124.899 57.0205 144.176 56.8555 144.34C56.8555 145.164 56.1965 145.659 55.3729 145.659Z" fill="black"/>
<path d="M154.055 34.1158C147.135 36.5873 144.169 60.1478 144.169 60.1478C144.169 60.1478 115.007 69.0451 116.819 74.4821C118.631 79.7545 135.437 78.7659 135.437 78.7659C135.437 78.7659 120.114 107.764 127.199 105.951C134.284 104.139 151.913 80.0838 151.913 80.0838C151.913 80.0838 175.144 101.338 175.804 94.0885C176.463 86.8392 167.895 69.0451 167.895 69.0451C167.895 69.0451 184.865 58.006 183.218 51.7453C181.405 45.4842 160.81 55.2051 160.81 55.2051C160.81 55.2051 163.117 30.8206 154.055 34.1158Z" fill="#FFC00F"/>
<path d="M227.213 11.3787C216.997 11.7084 218.48 35.9282 218.48 35.9282C218.48 35.9282 191.789 37.2461 191.624 42.6832C191.459 48.2852 212.219 49.2738 212.219 49.2738C212.219 49.2738 201.839 80.7429 207.441 81.2372C213.043 81.8962 229.19 58.665 229.19 58.665C229.19 58.665 248.466 78.766 249.62 72.9993C250.938 67.2326 238.416 46.308 238.416 46.308C238.416 46.308 261.153 36.4225 258.187 28.3492C255.222 20.2759 234.627 33.6216 234.627 33.6216C234.627 33.6216 232.979 11.214 227.213 11.3787Z" fill="#FFC00F"/>
<path d="M301.525 0.175064C297.735 1.493 293.616 16.4863 293.616 16.4863C293.616 16.4863 267.584 16.9806 267.419 20.7701C267.255 24.5595 284.39 30.3262 284.39 30.3262C284.39 30.3262 266.266 58.5002 271.868 59.6535C277.47 60.8067 298.724 36.5869 298.724 36.5869C298.724 36.5869 311.741 62.784 316.519 60.8067C321.297 58.8298 313.882 33.4568 313.882 33.4568C313.882 33.4568 331.675 26.8661 331.183 22.088C330.688 17.3102 309.104 19.1225 309.104 19.1225C309.104 19.1225 307.623 -2.13181 301.525 0.175064Z" fill="#FFC00F"/>
<path d="M380.934 13.3548C376.651 10.2243 365.445 34.7738 365.445 34.7738C365.445 34.7738 343.534 29.5013 343.699 32.6319C343.861 35.7624 356.219 45.4832 356.219 45.4832C356.219 45.4832 333.153 67.0668 338.921 70.5266C344.686 73.9868 365.94 56.1927 365.94 56.1927C365.94 56.1927 379.779 79.0942 383.571 77.4466C387.359 75.7991 383.571 50.261 383.571 50.261C383.571 50.261 402.683 51.4146 402.848 47.7898C403.013 44.165 381.921 39.0575 381.921 39.0575C381.921 39.0575 388.184 18.6272 380.934 13.3548Z" fill="#FFC00F"/>
<path d="M458.037 36.5865C453.754 37.7398 437.443 61.6303 437.443 61.6303C437.443 61.6303 416.024 54.3807 414.209 58.6644C412.563 62.9482 426.402 72.1748 426.402 72.1748C426.402 72.1748 404.653 91.2872 408.775 94.088C412.893 96.8889 440.076 79.754 440.076 79.754C440.076 79.754 450.458 107.434 454.741 105.456C459.027 103.48 455.896 78.2711 455.896 78.2711C455.896 78.2711 478.136 81.5663 478.631 75.4703C479.126 69.3739 455.896 65.7494 455.896 65.7494C455.896 65.7494 463.64 35.1039 458.037 36.5865Z" fill="#FFC00F"/>
<path d="M541.581 156.532C541.086 156.532 540.591 156.202 540.261 155.873C532.682 144.834 511.593 131.818 511.263 131.653C510.441 131.159 510.276 130.17 510.771 129.346C511.263 128.523 512.253 128.358 513.077 128.852C513.899 129.346 534.988 142.362 543.063 154.06C543.558 154.884 543.393 155.873 542.568 156.367C542.238 156.367 541.911 156.532 541.581 156.532Z" fill="black"/>
<path d="M526.749 177.952C526.254 177.952 525.759 177.622 525.429 177.128C512.579 157.357 491.817 150.601 491.655 150.601C490.83 150.272 490.335 149.448 490.5 148.459C490.83 147.636 491.655 147.142 492.642 147.306C493.467 147.636 514.721 154.391 528.23 175.151C528.725 175.974 528.56 176.963 527.735 177.457C527.405 177.787 527.079 177.952 526.749 177.952Z" fill="black"/>
</svg>
