<svg width="196" height="62" viewBox="0 0 196 62" fill="none" xmlns="http://www.w3.org/2000/svg">
<ellipse cx="46.5" cy="31" rx="46.5" ry="31" fill="white"/>
<path d="M7.73488 40.8049V16.9878H12.1581V36.7219H23.1479V40.8049H7.73488ZM34.9895 41.1451C33.1975 41.1451 31.5984 40.7482 30.192 39.9543C28.7857 39.1377 27.6742 38.0262 26.8577 36.6199C26.0411 35.2135 25.6328 33.6144 25.6328 31.8224C25.6328 30.0305 26.0411 28.4313 26.8577 27.025C27.6742 25.6187 28.7857 24.5185 30.192 23.7246C31.5984 22.908 33.1975 22.4997 34.9895 22.4997C36.7588 22.4997 38.3466 22.908 39.7529 23.7246C41.1592 24.5185 42.2594 25.6187 43.0533 27.025C43.8699 28.4313 44.2781 30.0305 44.2781 31.8224C44.2781 33.6144 43.8699 35.2135 43.0533 36.6199C42.2594 38.0262 41.1592 39.1377 39.7529 39.9543C38.3466 40.7482 36.7588 41.1451 34.9895 41.1451ZM34.9895 37.4365C35.9649 37.4365 36.8268 37.1869 37.5753 36.6879C38.3466 36.1889 38.9477 35.5197 39.3786 34.6805C39.8323 33.8412 40.0478 32.8885 40.0251 31.8224C40.0478 30.7337 39.8323 29.7696 39.3786 28.9304C38.9477 28.0911 38.3466 27.4333 37.5753 26.9569C36.8268 26.4579 35.9649 26.2084 34.9895 26.2084C34.0141 26.2084 33.1295 26.4579 32.3356 26.9569C31.5644 27.4333 30.9633 28.1024 30.5323 28.9644C30.1013 29.8037 29.8858 30.7563 29.8858 31.8224C29.8858 32.8885 30.1013 33.8412 30.5323 34.6805C30.9633 35.5197 31.5644 36.1889 32.3356 36.6879C33.1295 37.1869 34.0141 37.4365 34.9895 37.4365ZM56.2215 41.1451C54.4296 41.1451 52.8304 40.7482 51.4241 39.9543C50.0177 39.1377 48.9063 38.0262 48.0897 36.6199C47.2731 35.2135 46.8648 33.6144 46.8648 31.8224C46.8648 30.0305 47.2731 28.4313 48.0897 27.025C48.9063 25.6187 50.0177 24.5185 51.4241 23.7246C52.8304 22.908 54.4296 22.4997 56.2215 22.4997C57.9908 22.4997 59.5786 22.908 60.9849 23.7246C62.3913 24.5185 63.4914 25.6187 64.2853 27.025C65.1019 28.4313 65.5102 30.0305 65.5102 31.8224C65.5102 33.6144 65.1019 35.2135 64.2853 36.6199C63.4914 38.0262 62.3913 39.1377 60.9849 39.9543C59.5786 40.7482 57.9908 41.1451 56.2215 41.1451ZM56.2215 37.4365C57.1969 37.4365 58.0588 37.1869 58.8074 36.6879C59.5786 36.1889 60.1797 35.5197 60.6107 34.6805C61.0643 33.8412 61.2798 32.8885 61.2571 31.8224C61.2798 30.7337 61.0643 29.7696 60.6107 28.9304C60.1797 28.0911 59.5786 27.4333 58.8074 26.9569C58.0588 26.4579 57.1969 26.2084 56.2215 26.2084C55.2461 26.2084 54.3615 26.4579 53.5676 26.9569C52.7964 27.4333 52.1953 28.1024 51.7643 28.9644C51.3333 29.8037 51.1178 30.7563 51.1178 31.8224C51.1178 32.8885 51.3333 33.8412 51.7643 34.6805C52.1953 35.5197 52.7964 36.1889 53.5676 36.6879C54.3615 37.1869 55.2461 37.4365 56.2215 37.4365ZM69.2536 48.2902V22.874H73.3706L73.4386 26.9569L72.7241 26.6507C72.8602 25.9476 73.2458 25.2897 73.881 24.6773C74.5161 24.0422 75.2873 23.5318 76.1946 23.1462C77.1246 22.7606 78.0886 22.5678 79.0867 22.5678C80.6745 22.5678 82.0808 22.9647 83.3057 23.7586C84.5533 24.5526 85.5286 25.6413 86.2318 27.025C86.9577 28.4087 87.3206 30.0078 87.3206 31.8224C87.3206 33.6144 86.9577 35.2135 86.2318 36.6199C85.5286 38.0035 84.5533 39.1037 83.3057 39.9202C82.0808 40.7141 80.6972 41.1111 79.1547 41.1111C78.1113 41.1111 77.1019 40.9069 76.1266 40.4987C75.1739 40.0904 74.3573 39.5573 73.6768 38.8995C73.019 38.2417 72.6107 37.5499 72.4519 36.824L73.4727 36.3477V48.2902H69.2536ZM78.3041 37.4024C79.2568 37.4024 80.1074 37.1643 80.856 36.6879C81.6045 36.2116 82.1829 35.5538 82.5912 34.7145C83.0222 33.8752 83.2377 32.9112 83.2377 31.8224C83.2377 30.7337 83.0335 29.781 82.6252 28.9644C82.2169 28.1251 81.6385 27.4673 80.89 26.991C80.1414 26.5146 79.2795 26.2765 78.3041 26.2765C77.3061 26.2765 76.4328 26.5146 75.6843 26.991C74.9584 27.4446 74.38 28.0911 73.949 28.9304C73.518 29.7696 73.3025 30.7337 73.3025 31.8224C73.3025 32.9112 73.518 33.8752 73.949 34.7145C74.38 35.5538 74.9584 36.2116 75.6843 36.6879C76.4328 37.1643 77.3061 37.4024 78.3041 37.4024Z" fill="#DB76B9"/>
<path d="M95.1328 40.8049V16.9878H105.272C106.837 16.9878 108.153 17.2146 109.219 17.6683C110.308 18.1219 111.124 18.8024 111.669 19.7097C112.236 20.5944 112.519 21.6718 112.519 22.9421C112.519 24.2577 112.168 25.3691 111.465 26.2765C110.761 27.1838 109.775 27.8076 108.504 28.1478L108.47 27.4673C109.536 27.6941 110.466 28.1024 111.26 28.6922C112.054 29.2593 112.667 29.9738 113.098 30.8357C113.551 31.675 113.778 32.639 113.778 33.7278C113.778 34.8846 113.585 35.9054 113.2 36.79C112.837 37.6746 112.292 38.4118 111.567 39.0016C110.841 39.5913 109.979 40.045 108.981 40.3626C107.983 40.6574 106.86 40.8049 105.612 40.8049H95.1328ZM99.4539 36.824H105.408C106.247 36.824 106.951 36.6993 107.518 36.4497C108.107 36.2002 108.55 35.8373 108.845 35.361C109.162 34.8619 109.321 34.2722 109.321 33.5917C109.321 32.9566 109.151 32.4122 108.811 31.9585C108.493 31.5049 108.028 31.1646 107.416 30.9378C106.803 30.6883 106.077 30.5635 105.238 30.5635H99.4539V36.824ZM99.4539 26.7528H104.864C105.522 26.7528 106.089 26.628 106.565 26.3785C107.064 26.129 107.45 25.7888 107.722 25.3578C107.994 24.9268 108.13 24.4278 108.13 23.8607C108.13 22.9534 107.824 22.2502 107.211 21.7512C106.599 21.2295 105.703 20.9687 104.524 20.9687H99.4539V26.7528ZM115.904 40.8049L125.193 16.9878H129.344L138.564 40.8049H133.971L128.867 27.2632C128.754 26.991 128.595 26.56 128.391 25.9702C128.209 25.3805 128.005 24.7454 127.778 24.0649C127.552 23.3617 127.347 22.7152 127.166 22.1255C126.985 21.513 126.848 21.0707 126.758 20.7985L127.608 20.7645C127.472 21.2182 127.313 21.7285 127.132 22.2956C126.951 22.8627 126.758 23.4524 126.554 24.0649C126.349 24.6773 126.145 25.2671 125.941 25.8341C125.76 26.4012 125.59 26.9116 125.431 27.3652L120.327 40.8049H115.904ZM120.123 35.361L121.654 31.5162H132.508L134.141 35.361H120.123ZM151.756 41.1451C150.032 41.1451 148.455 40.8502 147.026 40.2605C145.597 39.6707 144.361 38.8315 143.318 37.7427C142.274 36.6312 141.458 35.3269 140.868 33.8299C140.301 32.3101 140.017 30.6543 140.017 28.8623C140.017 27.1384 140.324 25.5393 140.936 24.0649C141.548 22.5905 142.399 21.2976 143.488 20.1861C144.577 19.0746 145.847 18.2127 147.299 17.6002C148.75 16.9878 150.327 16.6816 152.028 16.6816C153.185 16.6816 154.308 16.8517 155.396 17.1919C156.485 17.5322 157.483 18.0085 158.391 18.621C159.298 19.2107 160.058 19.9026 160.67 20.6965L157.846 23.7927C157.256 23.1802 156.644 22.6699 156.009 22.2616C155.396 21.8306 154.75 21.513 154.069 21.3089C153.412 21.0821 152.731 20.9687 152.028 20.9687C150.985 20.9687 149.998 21.1615 149.068 21.5471C148.161 21.9327 147.367 22.4771 146.686 23.1802C146.028 23.8834 145.507 24.7227 145.121 25.698C144.735 26.6507 144.543 27.7168 144.543 28.8963C144.543 30.0985 144.724 31.1873 145.087 32.1627C145.473 33.138 146.006 33.9773 146.686 34.6805C147.389 35.3837 148.217 35.928 149.17 36.3137C150.145 36.6766 151.211 36.858 152.368 36.858C153.117 36.858 153.843 36.756 154.546 36.5518C155.249 36.3477 155.895 36.0641 156.485 35.7012C157.098 35.3156 157.653 34.8733 158.152 34.3743L160.33 37.8788C159.786 38.4912 159.06 39.0469 158.152 39.546C157.245 40.045 156.224 40.4419 155.09 40.7368C153.979 41.009 152.867 41.1451 151.756 41.1451ZM168.414 33.6938L167.733 29.3046L179.982 16.9878H185.528L168.414 33.6938ZM164.909 40.8049V16.9878H169.333V40.8049H164.909ZM180.527 40.8049L171.51 28.7943L174.64 26.1063L185.902 40.8049H180.527ZM190.747 41.1791C189.93 41.1791 189.295 40.941 188.841 40.4646C188.41 39.9883 188.195 39.3191 188.195 38.4572C188.195 37.6633 188.422 37.0168 188.875 36.5178C189.352 35.9961 189.975 35.7352 190.747 35.7352C191.563 35.7352 192.187 35.9734 192.618 36.4497C193.072 36.9034 193.299 37.5726 193.299 38.4572C193.299 39.2511 193.06 39.9089 192.584 40.4306C192.13 40.9296 191.518 41.1791 190.747 41.1791Z" fill="white"/>
</svg>
